<?xml version="1.0" standalone="no"?>
<!DOCTYPE svg PUBLIC "-//W3C//DTD SVG 1.1//EN" "http://www.w3.org/Graphics/SVG/1.1/DTD/svg11.dtd" >
<svg xmlns="http://www.w3.org/2000/svg" xmlns:xlink="http://www.w3.org/1999/xlink" version="1.1">
<metadata>
Created by FontForge 20190801 at Tue May  1 16:37:14 2018
 By Jimmy Wärting
Copyright (c) Boutros International, 2005. All rights reserved.
</metadata>
<defs>
<font id="GEDinarOne-Medium" horiz-adv-x="0" >
  <font-face 
    font-family="GE Dinar One"
    font-weight="500"
    font-stretch="normal"
    units-per-em="1000"
    panose-1="2 10 5 3 2 1 2 2 2 4"
    ascent="800"
    descent="-200"
    bbox="-114 -375 1302 1036"
    underline-thickness="50"
    underline-position="-100"
    unicode-range="U+0020-FEFF"
  />
<missing-glyph horiz-adv-x="500" 
d="M63 0v750h375v-750h-375zM125 63h250v625h-250v-625z" />
    <glyph glyph-name="alefmaddaabovearabic" unicode="&#x627;&#x653;" horiz-adv-x="181" 
d="M144 0h-95v615l95 30v-645zM266 727q-56 -41 -96 -41q-27 0 -60 15q-32 16 -47 16q-31 0 -59 -26l-44 31q56 42 96 42q30 0 63 -16q35 -15 51 -15q23 0 52 26z" />
    <glyph glyph-name="alefhamzaabovearabic" unicode="&#x627;&#x654;" horiz-adv-x="181" 
d="M144 0h-95v615l95 30v-645zM176 683h-165l21 34h28v20q0 69 64 69q25 0 46 -21l-22 -28q-10 15 -27 15q-24 0 -24 -35v-20h79v-34z" />
    <glyph glyph-name="wawhamzaabovearabic" unicode="&#x648;&#x654;" horiz-adv-x="475" 
d="M434 39q-2 -104 -53 -163q-56 -68 -162 -68q-74 0 -117 26l-42 92q84 -40 159 -35q108 6 120 119q-43 -24 -95 -24q-104 0 -154 72q-41 59 -41 152q0 94 41 153q50 71 154 71q115 0 161 -82q33 -61 33 -177v-32.5t-1 -40.5q-3 -48 -3 -63zM344 210q0 142 -100 142
q-101 0 -101 -142q0 -141 101 -141q100 0 100 141zM363 492h-286l42 52h45v17q0 51 29 85t83 34q41 0 78 -37l-39 -39q-20 26 -46 26q-51 0 -51 -61v-25h145v-52z" />
    <glyph glyph-name="alefhamzabelowarabic" unicode="&#x627;&#x655;" horiz-adv-x="181" 
d="M144 0h-95v615l95 30v-645zM166 -195h-165l21 35h29v19q0 69 63 69q25 0 46 -21l-22 -28q-10 15 -27 15q-24 0 -24 -35v-19h79v-35z" />
    <glyph glyph-name="yehhamzaabovearabic" unicode="&#x64a;&#x654;" horiz-adv-x="646" 
d="M609 380l-31 -92q-52 81 -122 81q-99 0 -99 -102v-49h247v-201q0 -110 -84 -165q-70 -44 -181 -44q-155 0 -221 86q-55 67 -69 222l96 29q0 -138 45 -194t149 -56q71 0 115 26q56 32 56 96v118h-248v139q0 81 50.5 129t138.5 48q93 0 158 -71zM213 192h-321l46 58h50v19
q0 57 32.5 95.5t92.5 38.5q48 0 89 -41l-43 -43q-22 28 -52 28q-58 0 -58 -68v-29h164v-58z" />
    <glyph glyph-name="shaddadammatanarabic" unicode="&#x64c;&#x651;" arabic-form="isolated" 
d="M218 866q-32 8 -49 22q-41 -47 -125 -65q29 37 29 60q0 12 -7.5 22.5t-19.5 1.5q-10 -7 -16 -24q-10 -20 -10 -22q1 14 1.5 28.5t1.5 29.5q8 35 30 45q28 4 39 -29q5 -13 3 -60q19 5 45 29q-22 19 -33 41q0 65 53 91q37 0 48 -26q4 -9 4 -19q0 -6 -2.5 -14l-5 -16t-5 -15
t-2.5 -10q0 -15 17 -26zM200 839q14 -45 14 -69q0 -30 -18.5 -49.5t-52.5 -11.5l-8 4q-8 -14 -17.5 -28.5t-26.5 -20.5q-38 0 -47 29q-8 20 0 77l14 9q2 -15 5 -32.5t13 -23.5q3 -1 8 -1q12 0 21 18q13 33 13 64l14 5q9 -22 9 -24q6 -12 19 -17q11 -8 16 11q8 38 6 54z
M171 956q2 15 -2 23q-9 20 -20 15q-1 -3 -1 -8q0 -9 23 -30z" />
    <glyph glyph-name="shaddakasratanarabic" unicode="&#x64d;&#x651;" arabic-form="isolated" 
d="M196 1000q12 -43 12 -69q0 -29 -18.5 -49t-51.5 -12l-8 5q-8 -15 -18 -30t-26 -19q-39 0 -48 27q-7 20 0 78l15 9q1 -8 2 -15.5t2 -15.5q3 -19 14 -24q5 -3 8 -3q11 0 19 20q14 34 14 63l13 6q10 -23 12 -25q6 -12 18 -18q11 -4 15 12q4 19 6 32t1 21zM203 848
q0 -41 -28 -51l-142 -69q5 25 16 35q6 6 32 19zM207 787q0 -40 -36 -60q-15 -8 -49.5 -23.5t-89.5 -39.5q4 46 36 52z" />
    <glyph glyph-name="shaddafathaarabic" unicode="&#x64e;&#x651;" arabic-form="isolated" 
d="M208 917q0 -43 -36 -61q-16 -8 -50.5 -23.5t-89.5 -38.5q6 46 37 50zM200 838q14 -45 14 -69q0 -30 -18.5 -49.5t-52.5 -11.5l-8 4q-8 -14 -17.5 -28.5t-26.5 -20.5q-38 0 -47 29q-8 20 0 77l14 9q2 -15 5 -32.5t13 -23.5q3 -1 8 -1q12 0 21 18q13 33 13 64l14 5
q9 -22 9 -24q6 -12 19 -17q11 -8 16 11q8 38 6 54z" />
    <glyph glyph-name="shaddadammaarabicX" unicode="&#x64f;&#x651;" arabic-form="isolated" 
d="M221 861l-39 25q-23 -22 -37.5 -34.5t-21.5 -17.5q-31 -20 -65 -20q-5 0 -10.5 0.5t-10.5 1.5q79 43 114 83q-27 20 -33 36q0 27 26 44q13 16 39 16q27 0 35 -23q8 -16 1 -32q-10 -21 -10 -24q0 -8 12 -13v-42zM209 840q12 -43 12 -69q0 -30 -18.5 -49.5t-51.5 -11.5
l-7 4q-9 -14 -18.5 -29t-25.5 -21q-40 0 -48 29q-9 21 0 78l14 9q2 -8 2.5 -15.5t1.5 -15.5q5 -19 15 -24q5 -3 7 -3q12 0 20 20q13 32 13 63l14 6q10 -25 11 -25q6 -14 19 -18q11 -5 14 11q9 39 8 54zM181 952q-6 16 -20 14q-10 -6 -10 -15q5 -12 27 -22q6 16 3 23z" />
    <glyph glyph-name="shaddakasraarabic" unicode="&#x650;&#x651;" arabic-form="isolated" 
d="M200 929q14 -45 14 -68q0 -31 -18.5 -50t-52.5 -13l-8 5q-8 -13 -17.5 -28t-26.5 -21q-38 0 -47 28q-7 21 0 79l14 8q2 -15 5 -32.5t13 -22.5q6 -2 8 -2q12 0 21 20q13 30 13 62l14 5q9 -23 13 -30t15 -12t16 12q8 38 6 54zM228 787q0 -41 -37 -60q-15 -8 -49.5 -23.5
t-89.5 -39.5q4 46 35 52z" />
    <glyph glyph-name="allahisolated" unicode="&#xfedf;&#xfee0;&#xfeea;" horiz-adv-x="1228" arabic-form="isolated" 
d="M1191 177q0 -76 -51 -127q-52 -50 -136 -50h-96q-88 0 -139 54q-51 -54 -143 -54h-45h-45q-96 0 -149 60q-52 -60 -147 -60q-191 0 -191 229q0 222 191 222h203v-267q0 -102 98 -102h24q7 1 20.5 1.5t35.5 0.5q100 0 100 102v429l93 30v-464q0 -97 100 -97h84
q99 0 99 102v429l94 28v-466zM348 374h-102q-59 0 -82 -39q-20 -32 -20 -106q0 -73 20 -107q22 -40 82 -40t82 40q20 34 20 107v145zM816 839q12 -43 12 -69q0 -29 -18.5 -49t-52.5 -12l-6 5q-9 -15 -19 -29t-26 -21q-39 0 -48 29q-8 21 0 77l15 9q1 -15 4 -32t14 -24
q3 -1 8 -1q13 0 20 19q13 32 13 64l14 5q8 -22 11 -25q6 -13 18 -17q10 -6 15 11q4 19 6 32.5t1 21.5z" />
    <glyph glyph-name="lamalefmaddaaboveisolatedarabi" unicode="&#xfedf;&#xfe82;" horiz-adv-x="557" arabic-form="isolated" 
d="M520 177q0 -77 -51 -127q-52 -50 -136 -50h-284l44 84h101v492l95 28v-520h38q99 0 99 100v440l94 28v-475zM378 703q-56 -41 -96 -41q-27 0 -60 15q-32 16 -47 16q-31 0 -59 -26l-44 31q56 42 96 42q30 0 63 -16q35 -15 51 -15q23 0 52 26z" />
    <glyph glyph-name="lamalefmaddaabovefinalarabic" unicode="&#xfee0;&#xfe82;" horiz-adv-x="668" arabic-form="final" 
d="M688 0h-74q-89 0 -139 53q-51 -53 -142 -53h-88h-196l44 84h101v492l95 28v-520h38q99 0 99 100v440q11 2 35 8t59 15v-466q0 -97 100 -97h68v-84zM378 703q-56 -41 -96 -41q-27 0 -60 15q-32 16 -47 16q-31 0 -59 -26l-44 31q56 42 96 42q30 0 63 -16q35 -15 51 -15
q23 0 52 26z" />
    <glyph glyph-name="lamalefhamzaaboveisolatedarabi" unicode="&#xfedf;&#xfe84;" horiz-adv-x="557" arabic-form="isolated" 
d="M520 177q0 -77 -51 -127q-52 -50 -136 -50h-284l44 84h101v492l95 28v-520h38q99 0 99 100v440l94 28v-475zM302 664h-165l21 34h28v20q0 69 64 69q25 0 46 -21l-22 -28q-10 15 -27 15q-24 0 -24 -35v-20h79v-34z" />
    <glyph glyph-name="lamalefhamzaabovefinalarabicX" unicode="&#xfee0;&#xfe84;" horiz-adv-x="668" arabic-form="final" 
d="M688 0h-74q-89 0 -139 53q-51 -53 -142 -53h-88h-196l44 84h101v492l95 28v-520h38q99 0 99 100v440q11 2 35 8t59 15v-466q0 -97 100 -97h68v-84zM302 664h-165l21 34h28v20q0 69 64 69q25 0 46 -21l-22 -28q-10 15 -27 15q-24 0 -24 -35v-20h79v-34z" />
    <glyph glyph-name="lamalefhamzabelowisolatedarabi" unicode="&#xfedf;&#xfe88;" horiz-adv-x="557" arabic-form="isolated" 
d="M520 177q0 -77 -51 -127q-52 -50 -136 -50h-284l44 84h101v492l95 28v-520h38q99 0 99 100v440l94 28v-475zM290 -195h-165l21 35h29v19q0 69 63 69q25 0 46 -21l-22 -28q-10 15 -27 15q-24 0 -24 -35v-19h79v-35z" />
    <glyph glyph-name="lamalefhamzabelowfinalarabicX" unicode="&#xfee0;&#xfe88;" horiz-adv-x="668" arabic-form="final" 
d="M688 0h-74q-89 0 -139 53q-51 -53 -142 -53h-88h-196l44 84h101v492l95 28v-520h38q99 0 99 100v440q11 2 35 8t59 15v-466q0 -97 100 -97h68v-84zM290 -195h-165l21 35h29v19q0 69 63 69q25 0 46 -21l-22 -28q-10 15 -27 15q-24 0 -24 -35v-19h79v-35z" />
    <glyph glyph-name="lamalefisolatedarabic" unicode="&#xfedf;&#xfe8e;" horiz-adv-x="557" arabic-form="isolated" 
d="M520 177q0 -77 -51 -127q-52 -50 -136 -50h-284l44 84h101v492l95 28v-520h38q99 0 99 100v440l94 28v-475z" />
    <glyph glyph-name="lamaleffinalarabic" unicode="&#xfee0;&#xfe8e;" horiz-adv-x="668" arabic-form="final" 
d="M688 0h-74q-89 0 -139 53q-51 -53 -142 -53h-88h-196l44 84h101v492l95 28v-520h38q99 0 99 100v440q11 2 35 8t59 15v-466q0 -97 100 -97h68v-84z" />
    <glyph glyph-name="hamzaarabic" unicode="&#x621;" horiz-adv-x="564" arabic-form="isolated" 
d="M509 0h-469l72 85h69v27q0 83 47 138q50 60 135 60q72 0 130 -63l-64 -63q-32 41 -76 41q-37 0 -60 -27.5t-23 -70.5v-42h239v-85z" />
    <glyph glyph-name="alefarabic" unicode="&#x627;" horiz-adv-x="181" arabic-form="isolated" 
d="M144 0h-95v615l95 30v-645z" />
    <glyph glyph-name="beharabic" unicode="&#x628;" horiz-adv-x="809" arabic-form="isolated" 
d="M772 172q0 -79 -50 -125.5t-138 -46.5h-355q-40 0 -73.5 12.5t-57 35t-36.5 54t-13 70.5v101l94 96v-187q0 -98 99 -98h337q100 0 100 98v244l93 25v-279zM476 -141q0 -21 -15.5 -36.5t-36.5 -15.5t-36 15.5t-15 36.5q0 20 15 35.5t36 15.5t36.5 -15.5t15.5 -35.5z" />
    <glyph glyph-name="tehmarbutaarabic" unicode="&#x629;" horiz-adv-x="492" arabic-form="isolated" 
d="M370 592q0 -21 -15.5 -36.5t-35.5 -15.5q-21 0 -36.5 15.5t-15.5 36.5t15.5 36t36.5 15q20 0 35.5 -15t15.5 -36zM236 592q0 -21 -15.5 -36.5t-37.5 -15.5q-21 0 -36 15.5t-15 36.5t15 36t36 15q22 0 37.5 -15t15.5 -36zM455 229q0 -97 -42 -156q-52 -73 -161 -73
q-108 0 -160 73q-43 58 -43 156q0 97 43 155q53 72 160 72q109 0 161 -72q42 -58 42 -155zM362 229q0 147 -110 147q-108 0 -108 -147q0 -149 108 -149q110 0 110 149z" />
    <glyph glyph-name="teharabic" unicode="&#x62a;" horiz-adv-x="809" arabic-form="isolated" 
d="M530 439q0 -22 -15.5 -37t-36.5 -15q-20 0 -35.5 15t-15.5 37q0 21 15.5 36.5t35.5 15.5q21 0 36.5 -15.5t15.5 -36.5zM396 439q0 -22 -15.5 -37t-36.5 -15t-36 15t-15 37q0 21 15 36.5t36 15.5t36.5 -15.5t15.5 -36.5zM772 172q0 -79 -50 -125.5t-138 -46.5h-355
q-40 0 -73.5 12.5t-57 35t-36.5 54t-13 70.5v101l94 96v-187q0 -98 99 -98h337q100 0 100 98v244l93 25v-279z" />
    <glyph glyph-name="theharabic" unicode="&#x62b;" horiz-adv-x="809" arabic-form="isolated" 
d="M464 555q0 -21 -15.5 -36.5t-36.5 -15.5t-36.5 15.5t-15.5 36.5t15.5 36t36.5 15t36.5 -15t15.5 -36zM530 439q0 -22 -15.5 -37t-36.5 -15q-20 0 -35.5 15t-15.5 37q0 21 15.5 36.5t35.5 15.5q21 0 36.5 -15.5t15.5 -36.5zM396 439q0 -22 -15.5 -37t-36.5 -15t-36 15
t-15 37q0 21 15 36.5t36 15.5t36.5 -15.5t15.5 -36.5zM772 172q0 -79 -50 -125.5t-138 -46.5h-355q-40 0 -73.5 12.5t-57 35t-36.5 54t-13 70.5v101l94 96v-187q0 -98 99 -98h337q100 0 100 98v244l93 25v-279z" />
    <glyph glyph-name="jeemarabic" unicode="&#x62c;" horiz-adv-x="569" arabic-form="isolated" 
d="M533 212h-227q-75 0 -117.5 -45.5t-42.5 -118.5q0 -69 44 -113q46 -44 116 -44q48 0 75 8q39 10 80 48v-101q-67 -38 -155 -38q-110 0 -184 69q-73 67 -73 171q0 106 71 177q70 70 186 70h110q-20 35 -54 59q-40 26 -78 26q-45 0 -76 -16q-31 -15 -78 -57l-61 63
q57 51 102 73q51 23 113 23q105 0 172 -70q63 -68 77 -184zM367 53q0 -22 -15.5 -37.5t-36.5 -15.5t-36.5 15.5t-15.5 37.5q0 21 15.5 36.5t36.5 15.5t36.5 -15.5t15.5 -36.5z" />
    <glyph glyph-name="haharabic" unicode="&#x62d;" horiz-adv-x="569" arabic-form="isolated" 
d="M533 212h-227q-75 0 -117.5 -45.5t-42.5 -118.5q0 -69 44 -113q46 -44 116 -44q48 0 75 8q39 10 80 48v-101q-67 -38 -155 -38q-110 0 -184 69q-73 67 -73 171q0 106 71 177q70 70 186 70h110q-20 35 -54 59q-40 26 -78 26q-45 0 -76 -16q-31 -15 -78 -57l-61 63
q57 51 102 73q51 23 113 23q105 0 172 -70q63 -68 77 -184z" />
    <glyph glyph-name="khaharabic" unicode="&#x62e;" horiz-adv-x="569" arabic-form="isolated" 
d="M337 592q0 -21 -15.5 -36.5t-36.5 -15.5q-22 0 -37.5 15.5t-15.5 36.5t15.5 36t37.5 15q21 0 36.5 -15t15.5 -36zM533 212h-227q-75 0 -117.5 -45.5t-42.5 -118.5q0 -69 44 -113q46 -44 116 -44q48 0 75 8q39 10 80 48v-101q-67 -38 -155 -38q-110 0 -184 69
q-73 67 -73 171q0 106 71 177q70 70 186 70h110q-20 35 -54 59q-40 26 -78 26q-45 0 -76 -16q-31 -15 -78 -57l-61 63q57 51 102 73q51 23 113 23q105 0 172 -70q63 -68 77 -184z" />
    <glyph glyph-name="dalarabic" unicode="&#x62f;" horiz-adv-x="483" arabic-form="isolated" 
d="M446 0h-397l57 82h246v190q0 98 -104 98q-85 0 -135 -87v108q68 59 135 59q87 0 143 -47q55 -46 55 -124v-279z" />
    <glyph glyph-name="thalarabic" unicode="&#x630;" horiz-adv-x="483" arabic-form="isolated" 
d="M312 592q0 -21 -15 -36.5t-36 -15.5t-36.5 15.5t-15.5 36.5q0 22 15.5 37.5t36.5 15.5t36 -15.5t15 -37.5zM446 0h-397l57 82h246v190q0 98 -104 98q-85 0 -135 -87v108q68 59 135 59q87 0 143 -47q55 -46 55 -124v-279z" />
    <glyph glyph-name="reharabic" unicode="&#x631;" horiz-adv-x="389" arabic-form="isolated" 
d="M352 30q0 -100 -61 -161q-60 -61 -164 -61q-63 0 -107 27l-45 94q68 -38 152 -38q61 0 95.5 36.5t34.5 99.5v396l95 28v-421z" />
    <glyph glyph-name="zainarabic" unicode="&#x632;" horiz-adv-x="389" arabic-form="isolated" 
d="M349 592q0 -21 -15 -36.5t-36 -15.5t-36.5 15.5t-15.5 36.5q0 22 15.5 37.5t36.5 15.5t36 -15.5t15 -37.5zM352 30q0 -100 -61 -161q-60 -61 -164 -61q-63 0 -107 27l-45 94q68 -38 152 -38q61 0 95.5 36.5t34.5 99.5v396l95 28v-421z" />
    <glyph glyph-name="seenarabic" unicode="&#x633;" horiz-adv-x="1233" arabic-form="isolated" 
d="M1187 172q0 -78 -50.5 -125t-137.5 -47h-396q-12 -192 -267 -192q-179 0 -244 111q-46 79 -43 251l94 28v-87q0 -58 10.5 -99.5t34 -67.5t60.5 -38t89 -12q172 0 172 136v298l95 29v-275h193v298l95 28v-324h102q98 0 98 98v242l95 29v-281z" />
    <glyph glyph-name="sheenarabic" unicode="&#x634;" horiz-adv-x="1233" arabic-form="isolated" 
d="M1187 172q0 -78 -50.5 -125t-137.5 -47h-396q-12 -192 -267 -192q-179 0 -244 111q-46 79 -43 251l94 28v-87q0 -58 10.5 -99.5t34 -67.5t60.5 -38t89 -12q172 0 172 136v298l95 29v-275h193v298l95 28v-324h102q98 0 98 98v242l95 29v-281zM824 592q0 -21 -15.5 -36.5
t-36.5 -15.5q-22 0 -36.5 15.5t-14.5 36.5q0 22 14.5 37.5t36.5 15.5q21 0 36.5 -15.5t15.5 -37.5zM958 592q0 -21 -15.5 -36.5t-36.5 -15.5t-36 15.5t-15 36.5q0 22 15 37.5t36 15.5t36.5 -15.5t15.5 -37.5zM892 708q0 -20 -15.5 -35.5t-36.5 -15.5t-36.5 15.5t-15.5 35.5
q0 21 15.5 36.5t36.5 15.5t36.5 -15.5t15.5 -36.5z" />
    <glyph glyph-name="sadarabic" unicode="&#x635;" horiz-adv-x="1249" arabic-form="isolated" 
d="M1193 0h-590q-12 -192 -267 -192q-179 0 -244 111q-46 79 -43 251l94 28v-87q0 -58 10.5 -99.5t34 -67.5t60.5 -38t89 -12q172 0 172 136v298l95 29v-215q19 83 68 156q94 143 261 148q146 5 220 -115q46 -74 46 -204q0 17 -6 -127zM1102 84q3 24 3 49q0 93 -37 154
q-46 72 -133 72q-105 0 -194 -102q-79 -88 -85 -173h446z" />
    <glyph glyph-name="dadarabic" unicode="&#x636;" horiz-adv-x="1249" arabic-form="isolated" 
d="M1193 0h-590q-12 -192 -267 -192q-179 0 -244 111q-46 79 -43 251l94 28v-87q0 -58 10.5 -99.5t34 -67.5t60.5 -38t89 -12q172 0 172 136v298l95 29v-215q19 83 68 156q94 143 261 148q146 5 220 -115q46 -74 46 -204q0 17 -6 -127zM1102 84q3 24 3 49q0 93 -37 154
q-46 72 -133 72q-105 0 -194 -102q-79 -88 -85 -173h446zM995 593q0 -22 -16 -37t-38 -15q-23 0 -39 15t-16 37q0 21 16 36.5t39 15.5q22 0 38 -15.5t16 -36.5z" />
    <glyph glyph-name="taharabic" unicode="&#x637;" horiz-adv-x="833" arabic-form="isolated" 
d="M792 0h-743l41 84h75v514l95 29v-342q97 156 271 161q147 4 221 -115q44 -74 44 -193q0 -11 -0.5 -28.5t-1.5 -40.5t-1.5 -40.5t-0.5 -28.5zM702 84q3 23 3 45q0 94 -40 164q-44 62 -127 67q-100 4 -189 -97q-70 -82 -93 -179h446z" />
    <glyph glyph-name="zaharabic" unicode="&#x638;" horiz-adv-x="833" arabic-form="isolated" 
d="M578 592q0 -21 -15.5 -36.5t-36.5 -15.5q-20 0 -35.5 15.5t-15.5 36.5q0 22 15.5 37.5t35.5 15.5q21 0 36.5 -15.5t15.5 -37.5zM792 0h-743l41 84h75v514l95 29v-342q97 156 271 161q147 4 221 -115q44 -74 44 -193q0 -11 -0.5 -28.5t-1.5 -40.5t-1.5 -40.5t-0.5 -28.5z
M702 84q3 23 3 45q0 94 -40 164q-44 62 -127 67q-100 4 -189 -97q-70 -82 -93 -179h446z" />
    <glyph glyph-name="ainarabic" unicode="&#x639;" horiz-adv-x="546" arabic-form="isolated" 
d="M509 207h-102h-101q-37 0 -66.5 -12.5t-50.5 -35t-32 -53.5t-11 -68q0 -69 42.5 -107.5t117.5 -38.5q45 0 72 8q34 10 83 50l1 -103q-67 -39 -156 -39q-112 0 -185 64q-72 63 -72 166q0 78 37.5 138.5t104.5 90.5v33q0 67 41 114q42 47 119 47q71 0 119 -55l-63 -62
q-24 35 -65 35q-59 0 -59 -68v-21h177z" />
    <glyph glyph-name="ghainarabic" unicode="&#x63a;" horiz-adv-x="546" arabic-form="isolated" 
d="M400 592q0 -21 -15.5 -36.5t-36.5 -15.5t-36.5 15.5t-15.5 36.5t15.5 36t36.5 15t36.5 -15t15.5 -36zM509 207h-102h-101q-37 0 -66.5 -12.5t-50.5 -35t-32 -53.5t-11 -68q0 -69 42.5 -107.5t117.5 -38.5q45 0 72 8q34 10 83 50l1 -103q-67 -39 -156 -39q-112 0 -185 64
q-72 63 -72 166q0 78 37.5 138.5t104.5 90.5v33q0 67 41 114q42 47 119 47q71 0 119 -55l-63 -62q-24 35 -65 35q-59 0 -59 -68v-21h177z" />
    <glyph glyph-name="feharabic" unicode="&#x641;" horiz-adv-x="808" arabic-form="isolated" 
d="M624 592q0 -21 -15.5 -36.5t-37.5 -15.5q-21 0 -36.5 15.5t-15.5 36.5t15.5 36t36.5 15q22 0 37.5 -15t15.5 -36zM771 157q0 -88 -51 -126q-43 -31 -133 -31h-358q-40 0 -73.5 12.5t-57 35t-36.5 54t-13 70.5v101l94 96v-187q0 -98 99 -98h332q53 0 71 6q31 13 31 60
h-135q-96 0 -133 43q-30 36 -30 117q0 73 51 116.5t142 43.5q101 0 155 -51q45 -43 45 -109v-153zM676 307q0 79 -105 79q-99 0 -99 -79q0 -51 14 -65q15 -12 76 -12h114v77z" />
    <glyph glyph-name="qafarabic" unicode="&#x642;" horiz-adv-x="647" arabic-form="isolated" 
d="M533 592q0 -21 -15.5 -36.5t-36.5 -15.5t-36.5 15.5t-15.5 36.5t15.5 36t36.5 15t36.5 -15t15.5 -36zM399 592q0 -21 -15.5 -36.5t-37.5 -15.5q-21 0 -36.5 15.5t-15.5 36.5t15.5 36t36.5 15q22 0 37.5 -15t15.5 -36zM604 16q-3 -208 -267 -208q-157 0 -223 83
q-53 67 -65 228l85 31q0 -141 47 -197t157 -56q74 -2 115 19q59 30 57 101v4q-35 -32 -97 -32q-103 0 -153 72q-41 62 -41 157q0 96 41 155q50 72 153 72q197 0 197 -269q0 -17 -1 -38.5t-3 -47.5q-1 -29 -1.5 -47.5t-0.5 -26.5zM514 218q0 144 -101 144t-101 -144t101 -144
t101 144z" />
    <glyph glyph-name="kafarabic" unicode="&#x643;" horiz-adv-x="809" arabic-form="isolated" 
d="M563 300h-321l48 58h49v20q0 28 8.5 52.5t25 42.5t39.5 28.5t53 10.5q48 0 88 -42l-44 -43q-22 28 -51 28q-58 0 -58 -68v-29h163v-58zM772 172q0 -79 -50 -125.5t-138 -46.5h-355q-40 0 -73.5 12.5t-57 35t-36.5 54t-13 70.5v101l94 96v-187q0 -98 99 -98h337
q100 0 100 98v435l93 28v-473z" />
    <glyph glyph-name="lamarabic" unicode="&#x644;" horiz-adv-x="641" arabic-form="isolated" 
d="M605 27q0 -219 -268 -219q-150 0 -218 83q-57 72 -70 228l95 31q0 -142 43 -197q44 -56 151 -56q85 0 124 24q47 32 47 104v589l95 29z" />
    <glyph glyph-name="meemarabic" unicode="&#x645;" horiz-adv-x="732" arabic-form="isolated" 
d="M695 229q0 -93 -41 -152q-50 -71 -151 -71q-102 0 -152 71q-41 59 -41 152q0 85 29 135h-54q-80 0 -109 -21q-32 -23 -32 -92v-415l-95 -29v444q0 111 59 159q52 41 159 41h236q101 0 151 -71q41 -59 41 -151zM601 229q0 139 -98 139t-98 -139t98 -139t98 139z" />
    <glyph glyph-name="noonarabic" unicode="&#x646;" horiz-adv-x="641" arabic-form="isolated" 
d="M371 311q0 -21 -14.5 -36t-36.5 -15q-21 0 -36.5 15t-15.5 36t15.5 36.5t36.5 15.5q22 0 36.5 -15.5t14.5 -36.5zM604 357v-337q0 -212 -268 -212q-179 0 -244 111q-46 79 -43 251l94 28v-87q0 -58 10.5 -99.5t34 -67.5t60.5 -38t89 -12q172 0 172 136v298z" />
    <glyph glyph-name="heharabic" unicode="&#x647;" horiz-adv-x="492" arabic-form="isolated" 
d="M455 229q0 -97 -42 -156q-52 -73 -161 -73q-108 0 -160 73q-43 58 -43 156q0 97 43 155q53 72 160 72q109 0 161 -72q42 -58 42 -155zM362 229q0 147 -110 147q-108 0 -108 -147q0 -149 108 -149q110 0 110 149z" />
    <glyph glyph-name="wawarabic" unicode="&#x648;" horiz-adv-x="475" arabic-form="isolated" 
d="M434 39q-2 -104 -53 -163q-56 -68 -162 -68q-74 0 -117 26l-42 92q84 -40 159 -35q108 6 120 119q-43 -24 -95 -24q-104 0 -154 72q-41 59 -41 152q0 94 41 153q50 71 154 71q115 0 161 -82q33 -61 33 -177v-32.5t-1 -40.5q-3 -48 -3 -63zM344 210q0 142 -100 142
q-101 0 -101 -142q0 -141 101 -141q100 0 100 141z" />
    <glyph glyph-name="alefmaksuraarabic" unicode="&#x649;" horiz-adv-x="646" arabic-form="isolated" 
d="M609 380l-31 -92q-52 81 -122 81q-99 0 -99 -102v-49h247v-201q0 -110 -84 -165q-70 -44 -181 -44q-155 0 -221 86q-55 67 -69 222l96 29q0 -138 45 -194t149 -56q71 0 115 26q56 32 56 96v118h-248v139q0 81 50.5 129t138.5 48q93 0 158 -71z" />
    <glyph glyph-name="yeharabic" unicode="&#x64a;" horiz-adv-x="646" arabic-form="isolated" 
d="M609 380l-31 -92q-52 81 -122 81q-99 0 -99 -102v-49h247v-201q0 -110 -84 -165q-70 -44 -181 -44q-155 0 -221 86q-55 67 -69 222l96 29q0 -138 45 -194t149 -56q71 0 115 26q56 32 56 96v118h-248v139q0 81 50.5 129t138.5 48q93 0 158 -71zM464 -323
q0 -21 -15.5 -36.5t-36.5 -15.5t-36.5 15.5t-15.5 36.5q0 20 15.5 35.5t36.5 15.5t36.5 -15.5t15.5 -35.5zM330 -323q0 -21 -15.5 -36.5t-36.5 -15.5q-22 0 -37 15.5t-15 36.5q0 20 15 35.5t37 15.5q21 0 36.5 -15.5t15.5 -35.5z" />
    <glyph glyph-name="fathatanarabic" unicode="&#xfe70;" arabic-form="isolated" 
d="M223 768q-14 -38 -45 -38l-156 -20q12 21 27 27q9 5 36 9zM210 721q-14 -42 -54 -46q-17 -2 -54.5 -5.5t-97.5 -7.5q21 41 51 36z" />
    <glyph glyph-name="dammatanarabic" unicode="&#xfe72;" arabic-form="isolated" 
d="M258 707q-33 8 -50 22q-41 -47 -124 -65q28 34 28 60q0 12 -7.5 22.5t-19.5 0.5q-10 -7 -16 -23q-10 -20 -10 -22q1 14 2 28.5t2 29.5q8 35 29 45q31 4 40 -29q3 -16 2 -61q19 4 46 30q-24 19 -34 40q0 65 53 91q38 0 48 -25q4 -8 4 -19q0 -6 -2.5 -14l-5 -16t-5 -15
t-2.5 -10q0 -15 17 -26zM210 796q3 13 -2 24q-8 20 -20 15q-1 -3 -1 -7q0 -11 23 -32z" />
    <glyph glyph-name="kasratanarabic" unicode="&#xfe74;" arabic-form="isolated" 
d="M171 -204q-13 -36 -44 -38l-157 -20q13 21 28 28q7 4 35 9zM159 -250q-13 -41 -54 -45q-34 -5 -153 -15q21 41 52 37z" />
    <glyph glyph-name="fathaarabic" unicode="&#xfe76;" arabic-form="isolated" 
d="M197 786q0 -42 -36 -62q-14 -7 -49 -22.5t-90 -38.5q5 44 36 50z" />
    <glyph glyph-name="dammaarabic" unicode="&#xfe78;" arabic-form="isolated" 
d="M198 710l-39 24q-48 -45 -59 -51q-30 -21 -66 -21q-5 0 -11 0.5t-11 1.5q79 43 116 83q-27 18 -33 35q0 28 24 46q15 16 41 16t34 -23q8 -15 0 -32l-8 -24q0 -8 12 -13v-42zM156 800q-6 17 -18 13q-10 -4 -10 -13q5 -10 27 -24q6 16 1 24z" />
    <glyph glyph-name="kasraarabic" unicode="&#xfe7a;" arabic-form="isolated" 
d="M161 -204q0 -43 -36 -62q-14 -8 -49 -23t-90 -38q5 44 36 50z" />
    <glyph glyph-name="shaddaarabic" unicode="&#xfe7c;" arabic-form="isolated" 
d="M234 839q12 -43 12 -69q0 -29 -18.5 -49t-52.5 -12l-6 5q-9 -15 -19 -29t-26 -21q-39 0 -48 29q-8 21 0 77l15 9q1 -15 4 -32t14 -24q3 -1 8 -1q13 0 20 19q13 32 13 64l14 5q8 -22 11 -25q6 -13 18 -17q10 -6 15 11q4 19 6 32.5t1 21.5z" />
    <glyph glyph-name="sukunarabic" unicode="&#xfe7e;" arabic-form="isolated" 
d="M157 690q-28 -27 -64 -27q-43 0 -70 41q-3 14 -3 24q0 65 73 96q31 0 57 -29t26 -62q0 -27 -19 -43zM130 717q-8 51 -39 61q-21 -16 -16 -45q4 -25 26 -25q13 0 29 9z" />
    <glyph glyph-name="alefwaslaisolated" unicode="&#x671;" horiz-adv-x="181" arabic-form="isolated" 
d="M144 0h-95v615l95 30v-645zM208 745q0 -63 -49 -63h-136l-38 21q-10 -7 -27 -1q2 5 6.5 11.5t10.5 16.5q3 6 14 18q6 2 13.5 -5.5l14.5 -14.5q19 -1 49 6q11 11 29.5 24.5t44.5 30.5q42 0 68 -44zM149 750q-16 4 -47 -22q80 -5 80 5q0 7 -33 17z" />
    <glyph glyph-name="peharabic" unicode="&#x67e;" horiz-adv-x="809" arabic-form="isolated" 
d="M772 172q0 -79 -50 -125.5t-138 -46.5h-355q-40 0 -73.5 12.5t-57 35t-36.5 54t-13 70.5v101l94 96v-187q0 -98 99 -98h337q100 0 100 98v244l93 25v-279zM530 -140q0 -21 -15.5 -36.5t-36.5 -15.5q-20 0 -35.5 15.5t-15.5 36.5t15.5 36t35.5 15q21 0 36.5 -15t15.5 -36z
M396 -140q0 -21 -15.5 -36.5t-36.5 -15.5t-36 15.5t-15 36.5t15 36t36 15t36.5 -15t15.5 -36zM464 -257q0 -21 -15.5 -36.5t-36.5 -15.5t-36.5 15.5t-15.5 36.5t15.5 36.5t36.5 15.5t36.5 -15.5t15.5 -36.5z" />
    <glyph glyph-name="tcheharabic" unicode="&#x686;" horiz-adv-x="569" arabic-form="isolated" 
d="M440 93q0 -22 -15 -36.5t-36 -14.5q-22 0 -37.5 14.5t-15.5 36.5q0 21 15.5 36.5t37.5 15.5q21 0 36 -15.5t15 -36.5zM533 212h-227q-75 0 -117.5 -45.5t-42.5 -118.5q0 -69 44 -113q46 -44 116 -44q48 0 75 8q39 10 80 48v-101q-67 -38 -155 -38q-110 0 -184 69
q-73 67 -73 171q0 106 71 177q70 70 186 70h110q-40 70 -132 70q-44 0 -75 -16q-13 -7 -31.5 -20.5t-42.5 -35.5l-66 62q57 51 102 73q51 23 113 23q108 0 173 -62.5t76 -176.5zM305 93q0 -22 -15.5 -36.5t-36.5 -14.5t-36 14.5t-15 36.5q0 21 15 36.5t36 15.5t36.5 -15.5
t15.5 -36.5zM373 -23q0 -21 -15.5 -36.5t-36.5 -15.5t-36.5 15.5t-15.5 36.5t15.5 36t36.5 15t36.5 -15t15.5 -36z" />
    <glyph glyph-name="jeharabic" unicode="&#x698;" horiz-adv-x="389" arabic-form="isolated" 
d="M352 30q0 -100 -61 -161q-60 -61 -164 -61q-63 0 -107 27l-45 94q68 -38 152 -38q61 0 95.5 36.5t34.5 99.5v396l95 28v-421zM280 708q0 -22 -15.5 -36.5t-36.5 -14.5t-36 14.5t-15 36.5q0 21 15 36.5t36 15.5t36.5 -15.5t15.5 -36.5zM348 592q0 -21 -15.5 -36.5
t-36.5 -15.5q-22 0 -37.5 15.5t-15.5 36.5t15.5 36t37.5 15q21 0 36.5 -15t15.5 -36zM212 592q0 -21 -15 -36.5t-36 -15.5t-36.5 15.5t-15.5 36.5t15.5 36t36.5 15t36 -15t15 -36z" />
    <glyph glyph-name="veharabic" unicode="&#x6a4;" horiz-adv-x="808" arabic-form="isolated" 
d="M627 708q0 -22 -15 -36.5t-36 -14.5t-36.5 14.5t-15.5 36.5q0 21 15.5 36.5t36.5 15.5t36 -15.5t15 -36.5zM694 592q0 -21 -15.5 -36.5t-36.5 -15.5t-36.5 15.5t-15.5 36.5t15.5 36t36.5 15t36.5 -15t15.5 -36zM560 592q0 -21 -15.5 -36.5t-36.5 -15.5q-22 0 -37 15.5
t-15 36.5t15 36t37 15q21 0 36.5 -15t15.5 -36zM771 157q0 -88 -51 -126q-43 -31 -133 -31h-358q-40 0 -73.5 12.5t-57 35t-36.5 54t-13 70.5v101l94 96v-187q0 -98 99 -98h332q53 0 71 6q31 13 31 60h-135q-96 0 -133 43q-30 36 -30 117q0 73 51 116.5t142 43.5
q101 0 155 -51q45 -43 45 -109v-153zM676 307q0 79 -105 79q-99 0 -99 -79q0 -51 14 -65q15 -12 76 -12h114v77z" />
    <glyph glyph-name="alefwaslafinal" unicode="&#x671;" horiz-adv-x="274" arabic-form="final" 
d="M287 0h-106q-64 0 -98 35.5t-34 93.5v486l95 30v-513q0 -48 49 -48h94v-84zM208 745q0 -63 -49 -63h-136l-38 21q-10 -7 -27 -1q2 5 6.5 11.5t10.5 16.5q3 6 14 18q6 2 13.5 -5.5l14.5 -14.5q19 -1 49 6q11 11 29.5 24.5t44.5 30.5q42 0 68 -44zM149 750q-16 4 -47 -22
q80 -5 80 5q0 7 -33 17z" />
    <glyph glyph-name="pehfinalarabic" unicode="&#x67e;" horiz-adv-x="924" arabic-form="final" 
d="M936 0h-47q-101 0 -145 74q-50 -74 -160 -74h-355q-40 0 -73.5 12.5t-57 35t-36.5 54t-13 70.5v101l94 96v-187q0 -98 99 -98h337q100 0 100 98v244l93 25v-238q0 -129 123 -129h41v-84zM530 -140q0 -21 -15.5 -36.5t-36.5 -15.5q-20 0 -35.5 15.5t-15.5 36.5t15.5 36
t35.5 15q21 0 36.5 -15t15.5 -36zM396 -140q0 -21 -15.5 -36.5t-36.5 -15.5t-36 15.5t-15 36.5t15 36t36 15t36.5 -15t15.5 -36zM464 -257q0 -21 -15.5 -36.5t-36.5 -15.5t-36.5 15.5t-15.5 36.5t15.5 36.5t36.5 15.5t36.5 -15.5t15.5 -36.5z" />
    <glyph glyph-name="pehinitialarabic" unicode="&#x67e;" horiz-adv-x="290" arabic-form="initial" 
d="M253 177q0 -77 -51 -127q-52 -50 -137 -50h-77v82h72q99 0 99 102v239l94 28v-274zM251 -140q0 -21 -15.5 -36.5t-36.5 -15.5t-36 15.5t-15 36.5t15 36t36 15t36.5 -15t15.5 -36zM117 -140q0 -21 -15.5 -36.5t-36.5 -15.5q-22 0 -36.5 15.5t-14.5 36.5t14.5 36t36.5 15
q21 0 36.5 -15t15.5 -36zM184 -257q0 -21 -15 -36.5t-36 -15.5t-36.5 15.5t-15.5 36.5q0 22 15.5 37t36.5 15t36 -15t15 -37z" />
    <glyph glyph-name="pehmedialarabic" unicode="&#x67e;" horiz-adv-x="389" arabic-form="medial" 
d="M401 0h-60q-88 0 -139 53q-51 -53 -142 -53h-72v82h66q100 0 100 102v239l94 28v-270q0 -99 99 -99h54v-82zM320 -140q0 -21 -15.5 -36.5t-36.5 -15.5q-22 0 -37.5 15.5t-15.5 36.5t15.5 36t37.5 15q21 0 36.5 -15t15.5 -36zM184 -140q0 -21 -15 -36.5t-36 -15.5
t-36.5 15.5t-15.5 36.5t15.5 36t36.5 15t36 -15t15 -36zM252 -257q0 -21 -15.5 -36.5t-36.5 -15.5q-20 0 -35.5 15.5t-15.5 36.5t15.5 36.5t35.5 15.5q21 0 36.5 -15.5t15.5 -36.5z" />
    <glyph glyph-name="vehfinalarabic" unicode="&#x6a4;" horiz-adv-x="838" arabic-form="final" 
d="M627 708q0 -22 -15 -36.5t-36 -14.5t-36.5 14.5t-15.5 36.5q0 21 15.5 36.5t36.5 15.5t36 -15.5t15 -36.5zM694 592q0 -21 -15.5 -36.5t-36.5 -15.5t-36.5 15.5t-15.5 36.5t15.5 36t36.5 15t36.5 -15t15.5 -36zM560 592q0 -21 -15.5 -36.5t-36.5 -15.5q-22 0 -37 15.5
t-15 36.5t15 36t37 15q21 0 36.5 -15t15.5 -36zM850 0h-217q-28 0 -57 6q-30 -6 -59 -6h-288q-40 0 -73.5 12.5t-57 35t-36.5 54t-13 70.5v101l94 96v-187q0 -98 99 -98h200q-61 66 -63 140q-3 96 40 155q51 72 155 72q106 0 157 -72q43 -59 40 -155q-2 -75 -63 -142h142
v-82zM576 367q-51 0 -78 -34t-27 -85q0 -49 26 -93q29 -48 79 -64q49 16 78 64q26 44 26 93q0 51 -26.5 85t-77.5 34z" />
    <glyph glyph-name="vehinitialarabic" unicode="&#x6a4;" horiz-adv-x="494" arabic-form="initial" 
d="M310 708q0 -22 -15.5 -36.5t-36.5 -14.5t-36 14.5t-15 36.5q0 21 15 36.5t36 15.5t36.5 -15.5t15.5 -36.5zM376 592q0 -21 -15 -36.5t-36 -15.5t-36.5 15.5t-15.5 36.5t15.5 36t36.5 15t36 -15t15 -36zM242 592q0 -21 -15 -36.5t-36 -15.5q-22 0 -37 15.5t-15 36.5t15 36
t37 15q21 0 36 -15t15 -36zM458 157q0 -88 -53 -126q-41 -31 -132 -31h-285v84h273q54 0 70 6q32 14 32 60h-135q-96 0 -133 43q-32 37 -32 117q0 73 51.5 116.5t142.5 43.5q102 0 154 -51q47 -44 47 -109v-153zM363 307q0 79 -106 79q-100 0 -100 -79q0 -51 15 -65
q15 -12 75 -12h116v77z" />
    <glyph glyph-name="vehmedialarabic" unicode="&#x6a4;" horiz-adv-x="531" arabic-form="medial" 
d="M321 708q0 -22 -15.5 -36.5t-36.5 -14.5t-36 14.5t-15 36.5q0 21 15 36.5t36 15.5t36.5 -15.5t15.5 -36.5zM389 592q0 -21 -15.5 -36.5t-36.5 -15.5q-22 0 -37.5 15.5t-15.5 36.5t15.5 36t37.5 15q21 0 36.5 -15t15.5 -36zM253 592q0 -21 -15 -36.5t-36 -15.5t-36.5 15.5
t-15.5 36.5t15.5 36t36.5 15t36 -15t15 -36zM544 0h-217q-29 0 -59 6q-28 -6 -59 -6h-221v82h147q-60 66 -62 142q-3 95 39 155q53 72 156 72q105 0 156 -72q42 -61 41 -155q-3 -75 -64 -142h143v-82zM268 367q-49 0 -76.5 -34t-27.5 -85q0 -50 25 -93q31 -48 79 -64
q50 16 79 64q26 44 26 93q0 51 -27 85t-78 34z" />
    <glyph glyph-name="tchehfinalarabic" unicode="&#x686;" horiz-adv-x="717" arabic-form="final" 
d="M729 0h-37q-205 0 -250 212h-136q-75 0 -117.5 -45.5t-42.5 -118.5q0 -69 44 -113q46 -44 116 -44q87 0 155 56v-101q-67 -38 -155 -38q-110 0 -184 69q-73 67 -73 171q0 106 71 177q70 70 186 70h110q-40 70 -132 70q-43 0 -74 -16q-13 -7 -31.5 -20.5t-41.5 -35.5
l-67 62q58 52 101 73q51 23 113 23q144 0 201 -96l66 -177q43 -94 151 -94h27v-84zM440 93q0 -22 -15 -36.5t-36 -14.5q-22 0 -37.5 14.5t-15.5 36.5q0 21 15.5 36.5t37.5 15.5q21 0 36 -15.5t15 -36.5zM305 93q0 -22 -15.5 -36.5t-36.5 -14.5t-36 14.5t-15 36.5
q0 21 15 36.5t36 15.5t36.5 -15.5t15.5 -36.5zM373 -23q0 -21 -15.5 -36.5t-36.5 -15.5t-36.5 15.5t-15.5 36.5t15.5 36t36.5 15t36.5 -15t15.5 -36z" />
    <glyph glyph-name="tchehinitialarabic" unicode="&#x686;" horiz-adv-x="557" arabic-form="initial" 
d="M520 0h-532v82h435v36q0 114 -21 165q-33 84 -131 84q-82 0 -153 -77l-68 63q101 98 221 98q151 0 210 -110q39 -76 39 -223v-118zM387 -140q0 -21 -15 -36.5t-36 -15.5t-36.5 15.5t-15.5 36.5t15.5 36t36.5 15t36 -15t15 -36zM253 -140q0 -21 -15 -36.5t-36 -15.5
t-36.5 15.5t-15.5 36.5t15.5 36t36.5 15t36 -15t15 -36zM321 -257q0 -21 -15.5 -36.5t-36.5 -15.5t-36 15.5t-15 36.5t15 36.5t36 15.5t36.5 -15.5t15.5 -36.5z" />
    <glyph glyph-name="tchehmedialarabic" unicode="&#x686;" horiz-adv-x="646" arabic-form="medial" 
d="M658 0h-670v82h449v36q0 114 -21 165q-33 84 -132 84q-81 0 -152 -77l-68 63q101 98 220 98q151 0 210 -110q40 -76 40 -223v-34h124v-84zM413 -140q0 -21 -15 -36.5t-36 -15.5t-36.5 15.5t-15.5 36.5t15.5 36t36.5 15t36 -15t15 -36zM278 -140q0 -21 -15 -36.5
t-37 -15.5q-21 0 -36 15.5t-15 36.5t15 36t36 15q22 0 37 -15t15 -36zM347 -257q0 -21 -15.5 -36.5t-37.5 -15.5q-21 0 -36.5 15.5t-15.5 36.5t15.5 36.5t36.5 15.5q22 0 37.5 -15.5t15.5 -36.5z" />
    <glyph glyph-name="jehfinalarabic" unicode="&#x698;" horiz-adv-x="481" arabic-form="final" 
d="M493 0h-142q-10 -88 -68.5 -140t-155.5 -52q-63 0 -107 27l-45 94q68 -38 152 -38q61 0 95.5 36.5t34.5 99.5v396l95 28v-367h141v-84zM280 708q0 -22 -15.5 -36.5t-36.5 -14.5t-36 14.5t-15 36.5q0 21 15 36.5t36 15.5t36.5 -15.5t15.5 -36.5zM348 592
q0 -21 -15.5 -36.5t-36.5 -15.5q-22 0 -37.5 15.5t-15.5 36.5t15.5 36t37.5 15q21 0 36.5 -15t15.5 -36zM212 592q0 -21 -15 -36.5t-36 -15.5t-36.5 15.5t-15.5 36.5t15.5 36t36.5 15t36 -15t15 -36z" />
    <glyph glyph-name="alefmaksurainitialarabic" unicode="&#x6cc;" horiz-adv-x="290" arabic-form="initial" 
d="M253 177q0 -77 -51 -127q-52 -50 -137 -50h-77v82h72q99 0 99 102v239l94 28v-274zM232 -140q0 -21 -15 -36.5t-36 -15.5q-22 0 -37.5 15.5t-15.5 36.5t15.5 36t37.5 15q21 0 36 -15t15 -36zM97 -140q0 -21 -15.5 -36.5t-35.5 -15.5q-21 0 -36.5 15.5t-15.5 36.5t15.5 36
t36.5 15q20 0 35.5 -15t15.5 -36z" />
    <glyph glyph-name="alefmaksuramedialarabic" unicode="&#x6cc;" horiz-adv-x="389" arabic-form="medial" 
d="M401 0h-60q-88 0 -139 53q-51 -53 -142 -53h-72v82h66q100 0 100 102v239l94 28v-270q0 -99 99 -99h54v-82zM321 -140q0 -21 -15.5 -36.5t-36.5 -15.5t-36 15.5t-15 36.5t15 36t36 15t36.5 -15t15.5 -36zM187 -140q0 -21 -15.5 -36.5t-36.5 -15.5q-22 0 -36.5 15.5
t-14.5 36.5t14.5 36t36.5 15q21 0 36.5 -15t15.5 -36z" />
    <glyph glyph-name="alefwithfathatanfinal" unicode="&#xfd3c;" horiz-adv-x="274" arabic-form="final" 
d="M287 0h-106q-64 0 -98 35.5t-34 93.5v486l95 30v-513q0 -48 49 -48h94v-84zM223 787q-14 -38 -45 -38l-156 -20q12 21 27 27q9 5 36 9zM210 740q-14 -42 -54 -46q-17 -2 -54.5 -5.5t-97.5 -7.5q21 41 51 36z" />
    <glyph glyph-name="alefwithfathatanisolated" unicode="&#xfd3d;" horiz-adv-x="181" arabic-form="isolated" 
d="M144 0h-95v615l95 30v-645zM223 787q-14 -38 -45 -38l-156 -20q12 21 27 27q9 5 36 9zM210 740q-14 -42 -54 -46q-17 -2 -54.5 -5.5t-97.5 -7.5q21 41 51 36z" />
    <glyph glyph-name="alefmaddaabovefinalarabic" unicode="&#x622;" horiz-adv-x="274" arabic-form="final" 
d="M287 0h-106q-64 0 -98 35.5t-34 93.5v486l95 30v-513q0 -48 49 -48h94v-84zM266 727q-56 -41 -96 -41q-27 0 -60 15q-32 16 -47 16q-31 0 -59 -26l-44 31q56 42 96 42q30 0 63 -16q35 -15 51 -15q23 0 52 26z" />
    <glyph glyph-name="alefhamzaabovefinalarabic" unicode="&#x623;" horiz-adv-x="274" arabic-form="final" 
d="M287 0h-106q-64 0 -98 35.5t-34 93.5v486l95 30v-513q0 -48 49 -48h94v-84zM176 683h-165l21 34h28v20q0 69 64 69q25 0 46 -21l-22 -28q-10 15 -27 15q-24 0 -24 -35v-20h79v-34z" />
    <glyph glyph-name="wawhamzaabovefinalarabic" unicode="&#x624;" horiz-adv-x="534" arabic-form="final" 
d="M546 0h-118q-13 -83 -65 -134q-57 -58 -145 -58q-76 0 -117 26l-42 92q85 -38 157 -35q48 1 79.5 32.5t37.5 76.5h-78q-101 2 -155 60q-51 54 -51 144q0 98 44 160q53 74 155 74q191 0 191 -234q0 -23 -0.5 -53.5t-1.5 -68.5h109v-82zM344 204q0 71 -13 101
q-21 50 -83 50q-104 0 -104 -151q0 -122 111 -122h88zM363 492h-286l42 52h45v17q0 51 29 85t83 34q41 0 78 -37l-39 -39q-20 26 -46 26q-51 0 -51 -61v-25h145v-52z" />
    <glyph glyph-name="alefhamzabelowfinalarabic" unicode="&#x625;" horiz-adv-x="274" arabic-form="final" 
d="M287 0h-106q-64 0 -98 35.5t-34 93.5v486l95 30v-513q0 -48 49 -48h94v-84zM176 -195h-165l21 35h29v19q0 69 63 69q25 0 46 -21l-22 -28q-10 15 -27 15q-24 0 -24 -35v-19h79v-35z" />
    <glyph glyph-name="yehhamzaabovefinalarabic" unicode="&#x626;" horiz-adv-x="555" arabic-form="final" 
d="M271 355h-323l48 57h50v20q0 58 32.5 96.5t92.5 38.5q49 0 89 -42l-45 -44q-21 28 -51 28q-58 0 -58 -66v-31h165v-57zM555 0q6 -95 -68 -146q-65 -46 -178 -46q-132 0 -200 74q-60 64 -60 176q0 91 40 186l109 66q-59 -132 -59 -234q0 -87 43 -135t127 -47q73 0 103 13
q60 22 66 93q-93 8 -123 76l44 90q19 -47 43 -65.5t72 -18.5h41v-82z" />
    <glyph glyph-name="yehhamzaaboveinitialarabic" unicode="&#x626;" horiz-adv-x="242" arabic-form="initial" 
d="M251 689l-44 -44q-21 28 -52 28q-57 0 -57 -67v-29h144v-58h-283l48 58h30v20q0 56 33 95t92 39q49 0 89 -42zM205 177q0 -77 -51 -127q-52 -50 -136 -50h-29v82h23q99 0 99 102v239l94 28v-274z" />
    <glyph glyph-name="yehhamzaabovemedialarabic" unicode="&#x626;" horiz-adv-x="389" arabic-form="medial" 
d="M290 689l-44 -44q-21 28 -52 28q-56 0 -56 -67v-29h149v-58h-293l48 58h34v20q0 28 8.5 52.5t25 42.5t39.5 28.5t53 10.5q48 0 88 -42zM401 0h-60q-88 0 -139 53q-51 -53 -142 -53h-72v82h66q100 0 100 102v239l94 28v-270q0 -99 99 -99h54v-82z" />
    <glyph glyph-name="aleffinalarabic" unicode="&#x627;" horiz-adv-x="274" arabic-form="final" 
d="M287 0h-106q-64 0 -98 35.5t-34 93.5v486l95 30v-513q0 -48 49 -48h94v-84z" />
    <glyph glyph-name="behfinalarabic" unicode="&#x628;" horiz-adv-x="924" arabic-form="final" 
d="M936 0h-47q-101 0 -145 74q-50 -74 -160 -74h-355q-40 0 -73.5 12.5t-57 35t-36.5 54t-13 70.5v101l94 96v-187q0 -98 99 -98h337q100 0 100 98v244l93 25v-238q0 -129 123 -129h41v-84zM476 -141q0 -21 -15.5 -36.5t-36.5 -15.5t-36 15.5t-15 36.5q0 20 15 35.5t36 15.5
t36.5 -15.5t15.5 -35.5z" />
    <glyph glyph-name="behinitialarabic" unicode="&#x628;" horiz-adv-x="290" arabic-form="initial" 
d="M253 177q0 -77 -51 -127q-52 -50 -137 -50h-77v82h72q99 0 99 102v239l94 28v-274zM193 -140q0 -21 -15.5 -36.5t-36.5 -15.5q-20 0 -35.5 15.5t-15.5 36.5t15.5 36t35.5 15q21 0 36.5 -15t15.5 -36z" />
    <glyph glyph-name="behmedialarabic" unicode="&#x628;" horiz-adv-x="389" arabic-form="medial" 
d="M401 0h-60q-88 0 -139 53q-51 -53 -142 -53h-72v82h66q100 0 100 102v239l94 28v-270q0 -99 99 -99h54v-82zM258 -141q0 -21 -15 -36.5t-36 -15.5t-36.5 15.5t-15.5 36.5q0 20 15.5 35.5t36.5 15.5t36 -15.5t15 -35.5z" />
    <glyph glyph-name="tehmarbutafinalarabic" unicode="&#x629;" horiz-adv-x="589" arabic-form="final" 
d="M395 592q0 -21 -15.5 -36.5t-36.5 -15.5t-36 15.5t-15 36.5t15 36t36 15t36.5 -15t15.5 -36zM261 592q0 -21 -15.5 -36.5t-37.5 -15.5q-21 0 -36.5 15.5t-15.5 36.5t15.5 36t36.5 15q22 0 37.5 -15t15.5 -36zM601 0h-65q-118 0 -149 70q-34 -70 -147 -70q-191 0 -191 229
q0 222 191 222h203v-267q0 -102 98 -102h60v-82zM348 374h-102q-59 0 -82 -39q-20 -32 -20 -106q0 -73 20 -107q22 -40 82 -40t82 40q20 34 20 107v145z" />
    <glyph glyph-name="tehfinalarabic" unicode="&#x62a;" horiz-adv-x="924" arabic-form="final" 
d="M530 439q0 -22 -15.5 -37t-36.5 -15q-20 0 -35.5 15t-15.5 37q0 21 15.5 36.5t35.5 15.5q21 0 36.5 -15.5t15.5 -36.5zM396 439q0 -22 -15.5 -37t-36.5 -15t-36 15t-15 37q0 21 15 36.5t36 15.5t36.5 -15.5t15.5 -36.5zM936 0h-47q-101 0 -145 74q-50 -74 -160 -74h-355
q-40 0 -73.5 12.5t-57 35t-36.5 54t-13 70.5v101l94 96v-187q0 -98 99 -98h337q100 0 100 98v244l93 25v-238q0 -129 123 -129h41v-84z" />
    <glyph glyph-name="tehinitialarabic" unicode="&#x62a;" horiz-adv-x="290" arabic-form="initial" 
d="M260 592q0 -21 -15 -36.5t-37 -15.5q-21 0 -36.5 15.5t-15.5 36.5t15.5 36t36.5 15q22 0 37 -15t15 -36zM125 592q0 -21 -15 -36.5t-36 -15.5t-36.5 15.5t-15.5 36.5t15.5 36t36.5 15t36 -15t15 -36zM253 177q0 -77 -51 -127q-52 -50 -137 -50h-77v82h72q99 0 99 102v239
l94 28v-274z" />
    <glyph glyph-name="tehmedialarabic" unicode="&#x62a;" horiz-adv-x="389" arabic-form="medial" 
d="M316 592q0 -21 -15.5 -36.5t-36.5 -15.5q-20 0 -35.5 15.5t-15.5 36.5t15.5 36t35.5 15q21 0 36.5 -15t15.5 -36zM182 592q0 -21 -15.5 -36.5t-36.5 -15.5q-22 0 -36.5 15.5t-14.5 36.5t14.5 36t36.5 15q21 0 36.5 -15t15.5 -36zM401 0h-60q-88 0 -139 53
q-51 -53 -142 -53h-72v82h66q100 0 100 102v239l94 28v-270q0 -99 99 -99h54v-82z" />
    <glyph glyph-name="thehfinalarabic" unicode="&#x62b;" horiz-adv-x="924" arabic-form="final" 
d="M464 555q0 -21 -15.5 -36.5t-36.5 -15.5t-36.5 15.5t-15.5 36.5t15.5 36t36.5 15t36.5 -15t15.5 -36zM530 439q0 -22 -15.5 -37t-36.5 -15q-20 0 -35.5 15t-15.5 37q0 21 15.5 36.5t35.5 15.5q21 0 36.5 -15.5t15.5 -36.5zM396 439q0 -22 -15.5 -37t-36.5 -15t-36 15
t-15 37q0 21 15 36.5t36 15.5t36.5 -15.5t15.5 -36.5zM936 0h-47q-101 0 -145 74q-50 -74 -160 -74h-355q-40 0 -73.5 12.5t-57 35t-36.5 54t-13 70.5v101l94 96v-187q0 -98 99 -98h337q100 0 100 98v244l93 25v-238q0 -129 123 -129h41v-84z" />
    <glyph glyph-name="thehinitialarabic" unicode="&#x62b;" horiz-adv-x="290" arabic-form="initial" 
d="M205 708q0 -22 -14.5 -36.5t-36.5 -14.5q-21 0 -36.5 14.5t-15.5 36.5q0 21 15.5 36.5t36.5 15.5q22 0 36.5 -15.5t14.5 -36.5zM273 592q0 -21 -15.5 -36.5t-36.5 -15.5q-22 0 -36.5 15.5t-14.5 36.5t14.5 36t36.5 15q21 0 36.5 -15t15.5 -36zM138 592q0 -21 -15.5 -36.5
t-36.5 -15.5t-36.5 15.5t-15.5 36.5t15.5 36t36.5 15t36.5 -15t15.5 -36zM253 177q0 -77 -51 -127q-52 -50 -137 -50h-77v82h72q99 0 99 102v239l94 28v-274z" />
    <glyph glyph-name="thehmedialarabic" unicode="&#x62b;" horiz-adv-x="389" arabic-form="medial" 
d="M252 708q0 -22 -15.5 -36.5t-36.5 -14.5q-20 0 -35.5 14.5t-15.5 36.5q0 21 15.5 36.5t35.5 15.5q21 0 36.5 -15.5t15.5 -36.5zM319 592q0 -21 -15.5 -36.5t-36.5 -15.5t-36.5 15.5t-15.5 36.5t15.5 36t36.5 15t36.5 -15t15.5 -36zM184 592q0 -21 -15 -36.5t-36 -15.5
q-22 0 -37 15.5t-15 36.5t15 36t37 15q21 0 36 -15t15 -36zM401 0h-60q-88 0 -139 53q-51 -53 -142 -53h-72v82h66q100 0 100 102v239l94 28v-270q0 -99 99 -99h54v-82z" />
    <glyph glyph-name="jeemfinalarabic" unicode="&#x62c;" horiz-adv-x="717" arabic-form="final" 
d="M729 0h-41q-201 0 -246 212h-136q-36 0 -65.5 -12t-50.5 -33.5t-32.5 -52t-11.5 -66.5q0 -35 12 -64t33 -49.5t50.5 -32t64.5 -11.5q88 0 155 56v-101q-67 -38 -155 -38q-108 0 -182 67q-75 67 -75 173q0 112 72 179q74 68 185 68h110q-45 104 -137 104q-75 0 -152 -72
l-57 53q106 102 209 100q132 -3 187 -105q19 -48 37 -95.5t37 -95.5q49 -100 162 -100h27v-84zM363 57q0 -21 -15.5 -36.5t-36.5 -15.5t-36 15.5t-15 36.5q0 20 15 35.5t36 15.5t36.5 -15.5t15.5 -35.5z" />
    <glyph glyph-name="jeeminitialarabic" unicode="&#x62c;" horiz-adv-x="557" arabic-form="initial" 
d="M520 0h-532v82h435v36q0 114 -21 165q-33 84 -131 84q-82 0 -153 -77l-68 63q101 98 221 98q151 0 210 -110q39 -76 39 -223v-118zM321 -140q0 -21 -15.5 -36.5t-36.5 -15.5t-36 15.5t-15 36.5t15 36t36 15t36.5 -15t15.5 -36z" />
    <glyph glyph-name="jeemmedialarabic" unicode="&#x62c;" horiz-adv-x="646" arabic-form="medial" 
d="M658 0h-670v82h449v36q0 114 -21 165q-33 84 -132 84q-81 0 -152 -77l-68 63q101 98 220 98q151 0 210 -110q40 -76 40 -223v-34h124v-84zM335 -140q0 -21 -15.5 -36.5t-36.5 -15.5t-36.5 15.5t-15.5 36.5t15.5 36t36.5 15t36.5 -15t15.5 -36z" />
    <glyph glyph-name="hahfinalarabic" unicode="&#x62d;" horiz-adv-x="717" arabic-form="final" 
d="M729 0h-41q-201 0 -246 212h-136q-36 0 -65.5 -12t-50.5 -33.5t-32.5 -52t-11.5 -66.5q0 -35 12 -64t33 -49.5t50.5 -32t64.5 -11.5q88 0 155 56v-101q-67 -38 -155 -38q-108 0 -182 67q-75 67 -75 173q0 112 72 179q74 68 185 68h110q-45 104 -137 104q-75 0 -152 -72
l-57 53q106 102 209 100q132 -3 187 -105q19 -48 37 -95.5t37 -95.5q49 -100 162 -100h27v-84z" />
    <glyph glyph-name="hahinitialarabic" unicode="&#x62d;" horiz-adv-x="557" arabic-form="initial" 
d="M520 0h-532v82h435v36q0 114 -21 165q-33 84 -131 84q-82 0 -153 -77l-68 63q101 98 221 98q151 0 210 -110q39 -76 39 -223v-118z" />
    <glyph glyph-name="hahmedialarabic" unicode="&#x62d;" horiz-adv-x="646" arabic-form="medial" 
d="M658 0h-670v82h449v36q0 114 -21 165q-33 84 -132 84q-81 0 -152 -77l-68 63q101 98 220 98q151 0 210 -110q40 -76 40 -223v-34h124v-84z" />
    <glyph glyph-name="khahfinalarabic" unicode="&#x62e;" horiz-adv-x="717" arabic-form="final" 
d="M337 621q0 -21 -15.5 -36.5t-36.5 -15.5q-22 0 -37.5 15.5t-15.5 36.5t15.5 36.5t37.5 15.5q21 0 36.5 -15.5t15.5 -36.5zM729 0h-41q-201 0 -246 212h-136q-36 0 -65.5 -12t-50.5 -33.5t-32.5 -52t-11.5 -66.5q0 -35 12 -64t33 -49.5t50.5 -32t64.5 -11.5q88 0 155 56
v-101q-67 -38 -155 -38q-108 0 -182 67q-75 67 -75 173q0 112 72 179q74 68 185 68h110q-45 104 -137 104q-75 0 -152 -72l-57 53q106 102 209 100q132 -3 187 -105q19 -48 37 -95.5t37 -95.5q49 -100 162 -100h27v-84z" />
    <glyph glyph-name="khahinitialarabic" unicode="&#x62e;" horiz-adv-x="557" arabic-form="initial" 
d="M323 592q0 -21 -15 -36.5t-36 -15.5q-22 0 -37.5 15.5t-15.5 36.5t15.5 36t37.5 15q21 0 36 -15t15 -36zM520 0h-532v82h435v36q0 114 -21 165q-33 84 -131 84q-82 0 -153 -77l-68 63q101 98 221 98q151 0 210 -110q39 -76 39 -223v-118z" />
    <glyph glyph-name="khahmedialarabic" unicode="&#x62e;" horiz-adv-x="646" arabic-form="medial" 
d="M337 592q0 -21 -15.5 -36.5t-36.5 -15.5q-22 0 -37.5 15.5t-15.5 36.5t15.5 36t37.5 15q21 0 36.5 -15t15.5 -36zM658 0h-670v82h449v36q0 114 -21 165q-33 84 -132 84q-81 0 -152 -77l-68 63q101 98 220 98q151 0 210 -110q40 -76 40 -223v-34h124v-84z" />
    <glyph glyph-name="dalfinalarabic" unicode="&#x62f;" horiz-adv-x="569" arabic-form="final" 
d="M582 0h-533l57 82h246v190q0 98 -104 98q-85 0 -135 -87v108q68 59 135 59q87 0 143 -47q55 -46 55 -124v-195h136v-84z" />
    <glyph glyph-name="thalfinalarabic" unicode="&#x630;" horiz-adv-x="569" arabic-form="final" 
d="M312 592q0 -21 -15 -36.5t-36 -15.5t-36.5 15.5t-15.5 36.5q0 22 15.5 37.5t36.5 15.5t36 -15.5t15 -37.5zM582 0h-533l57 82h246v190q0 98 -104 98q-85 0 -135 -87v108q68 59 135 59q87 0 143 -47q55 -46 55 -124v-195h136v-84z" />
    <glyph glyph-name="rehfinalarabic" unicode="&#x631;" horiz-adv-x="481" arabic-form="final" 
d="M493 0h-142q-10 -88 -68.5 -140t-155.5 -52q-63 0 -107 27l-45 94q68 -38 152 -38q61 0 95.5 36.5t34.5 99.5v396l95 28v-367h141v-84z" />
    <glyph glyph-name="zainfinalarabic" unicode="&#x632;" horiz-adv-x="481" arabic-form="final" 
d="M349 592q0 -21 -15 -36.5t-36 -15.5t-36.5 15.5t-15.5 36.5q0 22 15.5 37.5t36.5 15.5t36 -15.5t15 -37.5zM493 0h-142q-10 -88 -68.5 -140t-155.5 -52q-63 0 -107 27l-45 94q68 -38 152 -38q61 0 95.5 36.5t34.5 99.5v396l95 28v-367h141v-84z" />
    <glyph glyph-name="seenfinalarabic" unicode="&#x633;" horiz-adv-x="1291" arabic-form="final" 
d="M1302 0h-699q-12 -192 -267 -192q-179 0 -244 111q-46 79 -43 251l94 28v-87q0 -58 10.5 -99.5t34 -67.5t60.5 -38t89 -12q172 0 172 136v298l95 29v-273h200v295l95 28v-323h200v339l95 28v-367h108v-84z" />
    <glyph glyph-name="seeninitialarabic" unicode="&#x633;" horiz-adv-x="829" arabic-form="initial" 
d="M789 172q0 -78 -50.5 -125t-137.5 -47h-611v84h118v253l95 27v-282h196v298l95 28v-324h102q98 0 98 98v242l95 29v-281z" />
    <glyph glyph-name="seenmedialarabic" unicode="&#x633;" horiz-adv-x="890" arabic-form="medial" 
d="M899 0h-909v84h118v253l95 27v-280h198v295l95 28v-323h200v339l95 28v-367h108v-84z" />
    <glyph glyph-name="sheenfinalarabic" unicode="&#x634;" horiz-adv-x="1291" arabic-form="final" 
d="M1302 0h-699q-12 -192 -267 -192q-179 0 -244 111q-46 79 -43 251l94 28v-87q0 -58 10.5 -99.5t34 -67.5t60.5 -38t89 -12q172 0 172 136v298l95 29v-273h200v295l95 28v-323h200v339l95 28v-367h108v-84zM966 592q0 -21 -15.5 -36.5t-36.5 -15.5q-22 0 -37 15.5
t-15 36.5q0 22 15 37.5t37 15.5q21 0 36.5 -15.5t15.5 -37.5zM831 592q0 -21 -15.5 -36.5t-36.5 -15.5t-36 15.5t-15 36.5q0 22 15 37.5t36 15.5t36.5 -15.5t15.5 -37.5zM899 708q0 -20 -15.5 -35.5t-36.5 -15.5t-36.5 15.5t-15.5 35.5q0 21 15.5 36.5t36.5 15.5t36.5 -15.5
t15.5 -36.5z" />
    <glyph glyph-name="sheeninitialarabic" unicode="&#x634;" horiz-adv-x="829" arabic-form="initial" 
d="M789 172q0 -78 -50.5 -125t-137.5 -47h-611v84h118v253l95 27v-282h196v298l95 28v-324h102q98 0 98 98v242l95 29v-281zM426 592q0 -21 -15.5 -36.5t-36.5 -15.5q-22 0 -36.5 15.5t-14.5 36.5q0 22 14.5 37.5t36.5 15.5q21 0 36.5 -15.5t15.5 -37.5zM560 592
q0 -21 -15.5 -36.5t-36.5 -15.5t-36 15.5t-15 36.5q0 22 15 37.5t36 15.5t36.5 -15.5t15.5 -37.5zM494 708q0 -20 -15.5 -35.5t-36.5 -15.5t-36.5 15.5t-15.5 35.5q0 21 15.5 36.5t36.5 15.5t36.5 -15.5t15.5 -36.5z" />
    <glyph glyph-name="sheenmedialarabic" unicode="&#x634;" horiz-adv-x="890" arabic-form="medial" 
d="M899 0h-909v84h118v253l95 27v-280h198v295l95 28v-323h200v339l95 28v-367h108v-84zM563 592q0 -21 -15.5 -36.5t-36.5 -15.5q-22 0 -37 15.5t-15 36.5q0 22 15 37.5t37 15.5q21 0 36.5 -15.5t15.5 -37.5zM428 592q0 -21 -15.5 -36.5t-36.5 -15.5t-36 15.5t-15 36.5
q0 22 15 37.5t36 15.5t36.5 -15.5t15.5 -37.5zM496 708q0 -20 -15.5 -35.5t-36.5 -15.5t-36.5 15.5t-15.5 35.5q0 21 15.5 36.5t36.5 15.5t36.5 -15.5t15.5 -36.5z" />
    <glyph glyph-name="sadfinalarabic" unicode="&#x635;" horiz-adv-x="1274" arabic-form="final" 
d="M1283 0h-680q-12 -192 -267 -192q-179 0 -244 111q-46 79 -43 251l94 28v-87q0 -58 10.5 -99.5t34 -67.5t60.5 -38t89 -12q172 0 172 136v298l95 29v-215q19 83 68 156q94 143 261 148q146 5 220 -115q51 -85 45 -247h85v-84zM1102 84q3 24 3 49q0 93 -37 154
q-46 72 -133 72q-105 0 -194 -102q-79 -88 -85 -173h446z" />
    <glyph glyph-name="sadinitialarabic" unicode="&#x635;" horiz-adv-x="840" arabic-form="initial" 
d="M790 0h-800v84h118v253l95 27v-214q19 79 66 148q94 143 261 148q146 5 220 -115q46 -74 46 -204q0 17 -6 -127zM699 84q3 24 3 49q0 93 -37 154q-46 72 -133 72q-105 0 -194 -102q-79 -88 -85 -173h446z" />
    <glyph glyph-name="sadmedialarabic" unicode="&#x635;" horiz-adv-x="869" arabic-form="medial" 
d="M878 0h-888v84h118v253l95 27v-206q19 73 64 140q94 143 261 148q146 5 220 -115q51 -85 45 -247h85v-84zM697 84q3 24 3 49q0 93 -37 154q-46 72 -133 72q-105 0 -194 -102q-79 -88 -85 -173h446z" />
    <glyph glyph-name="dadfinalarabic" unicode="&#x636;" horiz-adv-x="1274" arabic-form="final" 
d="M1283 0h-680q-12 -192 -267 -192q-179 0 -244 111q-46 79 -43 251l94 28v-87q0 -58 10.5 -99.5t34 -67.5t60.5 -38t89 -12q172 0 172 136v298l95 29v-215q19 83 68 156q94 143 261 148q146 5 220 -115q51 -85 45 -247h85v-84zM1102 84q3 24 3 49q0 93 -37 154
q-46 72 -133 72q-105 0 -194 -102q-79 -88 -85 -173h446zM995 593q0 -22 -16 -37t-38 -15q-23 0 -39 15t-16 37q0 21 16 36.5t39 15.5q22 0 38 -15.5t16 -36.5z" />
    <glyph glyph-name="dadinitialarabic" unicode="&#x636;" horiz-adv-x="840" arabic-form="initial" 
d="M790 0h-800v84h118v253l95 27v-214q19 79 66 148q94 143 261 148q146 5 220 -115q46 -74 46 -204q0 17 -6 -127zM699 84q3 24 3 49q0 93 -37 154q-46 72 -133 72q-105 0 -194 -102q-79 -88 -85 -173h446zM592 593q0 -22 -16 -37t-38 -15q-23 0 -39 15t-16 37
q0 21 16 36.5t39 15.5q22 0 38 -15.5t16 -36.5z" />
    <glyph glyph-name="dadmedialarabic" unicode="&#x636;" horiz-adv-x="869" arabic-form="medial" 
d="M878 0h-888v84h118v253l95 27v-206q19 73 64 140q94 143 261 148q146 5 220 -115q51 -85 45 -247h85v-84zM697 84q3 24 3 49q0 93 -37 154q-46 72 -133 72q-105 0 -194 -102q-79 -88 -85 -173h446zM590 593q0 -22 -16 -37t-38 -15q-23 0 -39 15t-16 37q0 21 16 36.5
t39 15.5q22 0 38 -15.5t16 -36.5z" />
    <glyph glyph-name="tahfinalarabic" unicode="&#x637;" horiz-adv-x="882" arabic-form="final" 
d="M894 0h-845l41 84h75v514l95 29v-342q97 156 271 161q147 4 221 -115q50 -82 43 -247h99v-84zM702 84q3 23 3 45q0 94 -40 164q-44 62 -127 67q-100 4 -189 -97q-70 -82 -93 -179h446z" />
    <glyph glyph-name="tahinitialarabic" unicode="&#x637;" horiz-adv-x="775" arabic-form="initial" 
d="M734 0h-750v84h123v514l95 29v-342q97 157 272 161q146 5 220 -115q44 -74 44 -193q0 -11 -0.5 -28.5t-1.5 -40.5t-1.5 -40.5t-0.5 -28.5zM645 84q1 11 1.5 22.5t0.5 22.5q0 94 -39 164q-46 63 -128 67q-100 4 -188 -97q-71 -82 -94 -179h447z" />
    <glyph glyph-name="tahmedialarabic" unicode="&#x637;" horiz-adv-x="823" arabic-form="medial" 
d="M835 0h-851v84h123v514l95 29v-342q95 156 272 161q145 4 218 -115q51 -81 45 -247h98v-84zM643 84q4 20 4 45q0 94 -39 164q-46 63 -130 67q-100 4 -186 -97q-73 -82 -94 -179h445z" />
    <glyph glyph-name="zahfinalarabic" unicode="&#x638;" horiz-adv-x="882" arabic-form="final" 
d="M578 592q0 -21 -15.5 -36.5t-36.5 -15.5q-20 0 -35.5 15.5t-15.5 36.5q0 22 15.5 37.5t35.5 15.5q21 0 36.5 -15.5t15.5 -37.5zM894 0h-845l41 84h75v514l95 29v-342q97 156 271 161q147 4 221 -115q50 -82 43 -247h99v-84zM702 84q3 23 3 45q0 94 -40 164
q-44 62 -127 67q-100 4 -189 -97q-70 -82 -93 -179h446z" />
    <glyph glyph-name="zahinitialarabic" unicode="&#x638;" horiz-adv-x="775" arabic-form="initial" 
d="M520 592q0 -21 -15 -36.5t-36 -15.5t-36.5 15.5t-15.5 36.5q0 22 15.5 37.5t36.5 15.5t36 -15.5t15 -37.5zM734 0h-750v84h123v514l95 29v-342q97 157 272 161q146 5 220 -115q44 -74 44 -193q0 -11 -0.5 -28.5t-1.5 -40.5t-1.5 -40.5t-0.5 -28.5zM645 84q1 11 1.5 22.5
t0.5 22.5q0 94 -39 164q-46 63 -128 67q-102 4 -188 -97q-71 -82 -94 -179h447z" />
    <glyph glyph-name="zahmedialarabic" unicode="&#x638;" horiz-adv-x="823" arabic-form="medial" 
d="M519 592q0 -21 -14.5 -36.5t-37.5 -15.5q-21 0 -36 15.5t-15 36.5q0 22 15 37.5t36 15.5q23 0 37.5 -15.5t14.5 -37.5zM835 0h-851v84h123v514l95 29v-342q95 156 272 161q145 4 218 -115q51 -81 45 -247h98v-84zM643 84q4 20 4 45q0 94 -39 164q-46 63 -130 67
q-100 4 -186 -97q-73 -82 -94 -179h445z" />
    <glyph glyph-name="ainfinalarabic" unicode="&#x639;" horiz-adv-x="540" arabic-form="final" 
d="M552 0h-110q-107 0 -107 116v91h-29q-37 0 -66.5 -12.5t-50.5 -35t-32 -53.5t-11 -68q0 -69 42.5 -107.5t117.5 -38.5q45 0 72 8q34 10 83 50l1 -103q-67 -39 -156 -39q-112 0 -185 64q-72 63 -72 166q0 78 37.5 138.5t104.5 90.5v33q0 67 41 114q42 47 119 47
q71 0 119 -55l-63 -62q-24 35 -65 35q-59 0 -59 -68v-21h177l49 -83h-81v-50q0 -73 69 -73h55v-84z" />
    <glyph glyph-name="aininitialarabic" unicode="&#x639;" horiz-adv-x="561" arabic-form="initial" 
d="M524 0h-534v84h111v171q0 83 53 139q54 57 149 57q80 0 141 -59l-71 -64q-36 43 -81 43t-70.5 -28.5t-25.5 -71.5v-187h257z" />
    <glyph glyph-name="ainmedialarabic" unicode="&#x639;" horiz-adv-x="530" arabic-form="medial" 
d="M542 0h-554v84h114v171q0 84 53 140q54 56 149 56q80 0 141 -59l-70 -64q-36 43 -82 43q-43 0 -69.5 -28.5t-26.5 -71.5v-187h345v-84z" />
    <glyph glyph-name="ghainfinalarabic" unicode="&#x63a;" horiz-adv-x="540" arabic-form="final" 
d="M400 592q0 -21 -15.5 -36.5t-36.5 -15.5t-36.5 15.5t-15.5 36.5t15.5 36t36.5 15t36.5 -15t15.5 -36zM552 0h-110q-107 0 -107 116v91h-29q-37 0 -66.5 -12.5t-50.5 -35t-32 -53.5t-11 -68q0 -69 42.5 -107.5t117.5 -38.5q45 0 72 8q34 10 83 50l1 -103q-67 -39 -156 -39
q-112 0 -185 64q-72 63 -72 166q0 78 37.5 138.5t104.5 90.5v33q0 67 41 114q42 47 119 47q71 0 119 -55l-63 -62q-24 35 -65 35q-59 0 -59 -68v-21h177l49 -83h-81v-50q0 -73 69 -73h55v-84z" />
    <glyph glyph-name="ghaininitialarabic" unicode="&#x63a;" horiz-adv-x="561" arabic-form="initial" 
d="M347 592q0 -21 -15.5 -36.5t-36.5 -15.5t-36 15.5t-15 36.5q0 22 15 37.5t36 15.5t36.5 -15.5t15.5 -37.5zM524 0h-534v84h111v171q0 83 53 139q54 57 149 57q80 0 141 -59l-71 -64q-36 43 -81 43t-70.5 -28.5t-25.5 -71.5v-187h257z" />
    <glyph glyph-name="ghainmedialarabic" unicode="&#x63a;" horiz-adv-x="530" arabic-form="medial" 
d="M348 592q0 -21 -15.5 -36.5t-36.5 -15.5q-20 0 -35.5 15.5t-15.5 36.5q0 22 15.5 37.5t35.5 15.5q21 0 36.5 -15.5t15.5 -37.5zM542 0h-554v84h114v171q0 84 53 140q54 56 149 56q80 0 141 -59l-70 -64q-36 43 -82 43q-43 0 -69.5 -28.5t-26.5 -71.5v-187h345v-84z" />
    <glyph glyph-name="fehfinalarabic" unicode="&#x641;" horiz-adv-x="838" arabic-form="final" 
d="M627 592q0 -21 -15 -36.5t-36 -15.5t-36.5 15.5t-15.5 36.5q0 22 15.5 37.5t36.5 15.5t36 -15.5t15 -37.5zM850 0h-217q-28 0 -57 6q-30 -6 -59 -6h-288q-40 0 -73.5 12.5t-57 35t-36.5 54t-13 70.5v101l94 96v-187q0 -98 99 -98h200q-61 66 -63 140q-3 96 40 155
q51 72 155 72q106 0 157 -72q43 -59 40 -155q-2 -75 -63 -142h142v-82zM576 367q-51 0 -78 -34t-27 -85q0 -49 26 -93q29 -48 79 -64q49 16 78 64q26 44 26 93q0 51 -26.5 85t-77.5 34z" />
    <glyph glyph-name="fehinitialarabic" unicode="&#x641;" horiz-adv-x="494" arabic-form="initial" 
d="M309 592q0 -21 -15.5 -36.5t-36.5 -15.5t-36.5 15.5t-15.5 36.5t15.5 36t36.5 15t36.5 -15t15.5 -36zM458 157q0 -88 -53 -126q-41 -31 -132 -31h-285v84h273q54 0 70 6q32 14 32 60h-135q-96 0 -133 43q-32 37 -32 117q0 73 51.5 116.5t142.5 43.5q102 0 154 -51
q47 -44 47 -109v-153zM363 307q0 79 -106 79q-100 0 -100 -79q0 -51 15 -65q15 -12 75 -12h116v77z" />
    <glyph glyph-name="fehmedialarabic" unicode="&#x641;" horiz-adv-x="531" arabic-form="medial" 
d="M320 592q0 -21 -15.5 -36.5t-36.5 -15.5t-36.5 15.5t-15.5 36.5q0 22 15.5 37.5t36.5 15.5t36.5 -15.5t15.5 -37.5zM544 0h-217q-29 0 -59 6q-28 -6 -59 -6h-221v82h147q-60 66 -62 142q-3 95 39 155q53 72 156 72q105 0 156 -72q42 -61 41 -155q-3 -75 -64 -142h143v-82
zM268 367q-49 0 -76.5 -36t-27.5 -87q0 -53 25 -96q31 -51 79 -67q50 16 79 67q26 44 26 96q0 51 -27 87t-78 36z" />
    <glyph glyph-name="qaffinalarabic" unicode="&#x642;" horiz-adv-x="684" arabic-form="final" 
d="M533 592q0 -21 -15.5 -36.5t-36.5 -15.5t-36.5 15.5t-15.5 36.5t15.5 36t36.5 15t36.5 -15t15.5 -36zM399 592q0 -21 -15.5 -36.5t-37.5 -15.5q-21 0 -36.5 15.5t-15.5 36.5t15.5 36t36.5 15q22 0 37.5 -15t15.5 -36zM696 0h-93q-13 -192 -266 -192q-157 0 -223 83
q-53 67 -65 228l85 31q0 -141 47 -197t157 -56q171 -1 172 103h-82q-216 0 -216 212q0 97 40 161q53 78 156 78q106 0 155 -78q41 -64 41 -161v-130h92v-82zM510 84v128q0 156 -102 156t-102 -156q0 -73 32 -103q26 -25 92 -25h80z" />
    <glyph glyph-name="qafinitialarabic" unicode="&#x642;" horiz-adv-x="494" arabic-form="initial" 
d="M370 592q0 -21 -15.5 -36.5t-35.5 -15.5q-21 0 -36.5 15.5t-15.5 36.5t15.5 36t36.5 15q20 0 35.5 -15t15.5 -36zM236 592q0 -21 -15.5 -36.5t-37.5 -15.5q-21 0 -36 15.5t-15 36.5t15 36t36 15q22 0 37.5 -15t15.5 -36zM458 157q0 -88 -53 -126q-41 -31 -132 -31h-285
v84h273q54 0 70 6q32 14 32 60h-135q-96 0 -133 43q-32 37 -32 117q0 73 51.5 116.5t142.5 43.5q102 0 154 -51q47 -44 47 -109v-153zM363 307q0 79 -106 79q-100 0 -100 -79q0 -51 15 -65q15 -12 75 -12h116v77z" />
    <glyph glyph-name="qafmedialarabic" unicode="&#x642;" horiz-adv-x="531" arabic-form="medial" 
d="M384 592q0 -21 -15.5 -36.5t-36.5 -15.5t-36.5 15.5t-15.5 36.5t15.5 36t36.5 15t36.5 -15t15.5 -36zM250 592q0 -21 -15.5 -36.5t-37.5 -15.5q-21 0 -36.5 15.5t-15.5 36.5t15.5 36t36.5 15q22 0 37.5 -15t15.5 -36zM544 0h-217q-29 0 -59 6q-28 -6 -59 -6h-221v82h147
q-60 66 -62 142q-3 95 39 155q53 72 156 72q105 0 156 -72q42 -61 41 -155q-3 -75 -64 -142h143v-82zM268 367q-49 0 -76.5 -36t-27.5 -87q0 -53 25 -96q31 -51 79 -67q50 16 79 67q26 44 26 96q0 51 -27 87t-78 36z" />
    <glyph glyph-name="kaffinalarabic" unicode="&#x643;" horiz-adv-x="919" arabic-form="final" 
d="M931 0h-42q-101 0 -147 70q-49 -70 -158 -70h-355q-40 0 -73.5 12.5t-57 35t-36.5 54t-13 70.5v101l94 96v-187q0 -98 99 -98h337q100 0 100 98v435l93 28v-433q0 -128 123 -128h36v-84zM563 300h-321l48 58h49v20q0 28 8.5 52.5t25 42.5t39.5 28.5t53 10.5q48 0 88 -42
l-44 -43q-22 28 -51 28q-58 0 -58 -68v-29h163v-58z" />
    <glyph glyph-name="kafinitialarabic" unicode="&#x643;" horiz-adv-x="592" arabic-form="initial" 
d="M555 0h-567v82h470q1 38 -0.5 65.5t-3.5 43.5q-11 63 -48 97q-51 48 -134 48q-107 0 -175 -78l-65 61l311 324h124l-216 -227q23 3 44 3q104 0 174 -63q71 -62 83 -165q3 -21 3 -191z" />
    <glyph glyph-name="kafmedialarabic" unicode="&#x643;" horiz-adv-x="665" arabic-form="medial" 
d="M678 0h-690v82h470q1 38 -0.5 65.5t-3.5 43.5q-11 63 -48 97q-51 48 -134 48q-107 0 -175 -78l-65 61l311 324h124l-216 -227q23 3 44 3q113 0 183 -70q68 -70 77 -180q1 -16 1.5 -37t-0.5 -48h122v-84z" />
    <glyph glyph-name="lamfinalarabic" unicode="&#x644;" horiz-adv-x="733" arabic-form="final" 
d="M745 0h-142q-16 -192 -266 -192q-150 0 -218 83q-57 72 -70 228l95 31q0 -142 43 -197q44 -56 151 -56q85 0 124 24q47 32 47 104v589l95 29v-559h141v-84z" />
    <glyph glyph-name="laminitialarabic" unicode="&#x644;" horiz-adv-x="277" arabic-form="initial" 
d="M240 177q0 -76 -51 -127q-52 -50 -137 -50h-64v84h59q98 0 98 102v429l95 28v-466z" />
    <glyph glyph-name="lammedialarabic" unicode="&#x644;" horiz-adv-x="402" arabic-form="medial" 
d="M415 0h-66q-86 0 -139 54q-49 -54 -141 -54h-81v84h75q99 0 99 102v429l95 30v-464q0 -97 98 -97h60v-84z" />
    <glyph glyph-name="meemfinalarabic" unicode="&#x645;" horiz-adv-x="828" arabic-form="final" 
d="M840 0h-28q-115 0 -156 86q-50 -71 -153 -71t-152 67q-41 58 -41 149q0 83 29 133h-54q-80 0 -109 -21q-32 -23 -32 -92v-417l-95 -28v445q0 111 59 159q52 41 159 41h236q104 0 153 -70q39 -55 39 -150q0 -73 25 -107q28 -40 98 -40h22v-84zM601 231q0 137 -98 137
t-98 -137q0 -133 98 -133t98 133z" />
    <glyph glyph-name="meeminitialarabic" unicode="&#x645;" horiz-adv-x="549" arabic-form="initial" 
d="M512 214q0 -90 -41 -146q-50 -68 -152 -68q-86 0 -139 53q-48 -53 -147 -53h-45v82h39q98 0 98 100v32q0 90 41 148q49 67 153 67q103 0 152 -67q41 -58 41 -148zM417 214q0 134 -98 134q-99 0 -99 -134q0 -133 99 -133q98 0 98 133z" />
    <glyph glyph-name="meemmedialarabic" unicode="&#x645;" horiz-adv-x="665" arabic-form="medial" 
d="M674 0h-13q-89 0 -137 63q-18 -63 -70 -98t-124 -35q-69 0 -120 31.5t-71 88.5q-44 -50 -124 -50h-32v84h26q107 0 119 96q25 175 202 175q97 0 145 -45q42 -39 56 -130q17 -98 123 -98l20 2v-84zM435 143q0 133 -105 133q-106 0 -106 -133t106 -133q105 0 105 133z" />
    <glyph glyph-name="noonfinalarabic" unicode="&#x646;" horiz-adv-x="754" arabic-form="final" 
d="M379 282q0 -21 -15.5 -36.5t-36.5 -15.5t-36 15.5t-15 36.5t15 36t36 15t36.5 -15t15.5 -36zM766 0h-163q-13 -192 -267 -192q-179 0 -244 111q-46 79 -43 251l94 28v-87q0 -58 10.5 -99.5t34 -67.5t60.5 -38t89 -12q172 0 172 136v298l95 29v-273h162v-84z" />
    <glyph glyph-name="nooninitialarabic" unicode="&#x646;" horiz-adv-x="290" arabic-form="initial" 
d="M193 592q0 -21 -15.5 -36.5t-36.5 -15.5q-20 0 -35.5 15.5t-15.5 36.5q0 22 15.5 37.5t35.5 15.5q21 0 36.5 -15.5t15.5 -37.5zM253 177q0 -77 -51 -127q-52 -50 -137 -50h-77v82h72q99 0 99 102v239l94 28v-274z" />
    <glyph glyph-name="noonmedialarabic" unicode="&#x646;" horiz-adv-x="389" arabic-form="medial" 
d="M250 592q0 -21 -15.5 -36.5t-36.5 -15.5t-36.5 15.5t-15.5 36.5t15.5 36t36.5 15t36.5 -15t15.5 -36zM401 0h-60q-88 0 -139 53q-51 -53 -142 -53h-72v82h66q100 0 100 102v239l94 28v-270q0 -99 99 -99h54v-82z" />
    <glyph glyph-name="hehfinalarabic" unicode="&#x647;" horiz-adv-x="589" arabic-form="final" 
d="M601 0h-65q-118 0 -149 70q-34 -70 -147 -70q-191 0 -191 229q0 222 191 222h203v-267q0 -102 98 -102h60v-82zM348 374h-102q-59 0 -82 -39q-20 -32 -20 -106q0 -73 20 -107q22 -40 82 -40t82 40q20 34 20 107v145z" />
    <glyph glyph-name="hehinitialarabic" unicode="&#x647;" horiz-adv-x="552" arabic-form="initial" 
d="M515 0h-530v84h132q-31 13 -31 107q0 63 28 103q36 52 107 52q72 0 106 -52q28 -40 28 -103q0 -74 -27 -107h90v81q0 121 -26 170q-34 67 -141 67h-217l109 84h120q155 0 213 -103q39 -72 39 -218v-165zM280 191q0 87 -59 87t-59 -87q0 -109 59 -109t59 109z" />
    <glyph glyph-name="hehmedialarabic" unicode="&#x647;" horiz-adv-x="694" arabic-form="medial" 
d="M706 0h-718v84h134q-8 17 -13 40t-6 52q-1 123 68 209q71 86 182 86t180 -63q46 -41 59 -109q5 -26 8 -68.5t3 -103.5v-43h103v-84zM510 127q0 132 -16 174q-30 88 -141 86q-55 0 -87 -16q77 0 120 -64q36 -52 36 -127q0 -74 -31 -96h119v43zM262 84q37 0 56 27.5
t19 69.5q0 44 -21 78q-21 35 -54 35t-54 -35q-20 -35 -20 -78q0 -42 18.5 -69.5t55.5 -27.5z" />
    <glyph glyph-name="wawfinalarabic" unicode="&#x648;" horiz-adv-x="534" arabic-form="final" 
d="M546 0h-118q-13 -83 -65 -134q-57 -58 -145 -58q-76 0 -117 26l-42 92q85 -38 157 -35q48 1 79.5 32.5t37.5 76.5h-78q-101 2 -155 60q-51 54 -51 144q0 98 44 160q53 74 155 74q191 0 191 -234q0 -23 -0.5 -53.5t-1.5 -68.5h109v-82zM344 204q0 71 -13 101
q-21 50 -83 50q-104 0 -104 -151q0 -122 111 -122h88z" />
    <glyph glyph-name="alefmaksurafinalarabic" unicode="&#x649;" horiz-adv-x="555" arabic-form="final" 
d="M555 0q6 -95 -68 -146q-65 -46 -178 -46q-132 0 -200 74q-60 64 -60 176q0 91 40 186l109 66q-59 -132 -59 -234q0 -87 43 -135t127 -47q73 0 103 13q60 22 66 93q-93 8 -123 76l44 90q19 -47 43 -65.5t72 -18.5h41v-82z" />
    <glyph glyph-name="yehfinalarabic" unicode="&#x64a;" horiz-adv-x="555" arabic-form="final" 
d="M555 0q6 -95 -68 -146q-65 -46 -178 -46q-132 0 -200 74q-60 64 -60 176q0 91 40 186l109 66q-59 -132 -59 -234q0 -87 43 -135t127 -47q73 0 103 13q60 22 66 93q-93 8 -123 76l44 90q19 -47 43 -65.5t72 -18.5h41v-82zM427 -323q0 -21 -15.5 -36.5t-36.5 -15.5
q-22 0 -37 15.5t-15 36.5q0 20 15 35.5t37 15.5q21 0 36.5 -15.5t15.5 -35.5zM292 -323q0 -21 -15 -36.5t-37 -15.5q-21 0 -36.5 15.5t-15.5 36.5q0 20 15.5 35.5t36.5 15.5q22 0 37 -15.5t15 -35.5z" />
    <glyph glyph-name="yehinitialarabic" unicode="&#x64a;" horiz-adv-x="290" arabic-form="initial" 
d="M253 177q0 -77 -51 -127q-52 -50 -137 -50h-77v82h72q99 0 99 102v239l94 28v-274zM232 -140q0 -21 -15 -36.5t-36 -15.5q-22 0 -37.5 15.5t-15.5 36.5t15.5 36t37.5 15q21 0 36 -15t15 -36zM97 -140q0 -21 -15.5 -36.5t-35.5 -15.5q-21 0 -36.5 15.5t-15.5 36.5t15.5 36
t36.5 15q20 0 35.5 -15t15.5 -36z" />
    <glyph glyph-name="yehmedialarabic" unicode="&#x64a;" horiz-adv-x="389" arabic-form="medial" 
d="M401 0h-60q-88 0 -139 53q-51 -53 -142 -53h-72v82h66q100 0 100 102v239l94 28v-270q0 -99 99 -99h54v-82zM321 -140q0 -21 -15.5 -36.5t-36.5 -15.5t-36 15.5t-15 36.5t15 36t36 15t36.5 -15t15.5 -36zM187 -140q0 -21 -15.5 -36.5t-36.5 -15.5q-22 0 -36.5 15.5
t-14.5 36.5t14.5 36t36.5 15q21 0 36.5 -15t15.5 -36z" />
    <glyph glyph-name=".notdef" horiz-adv-x="500" 
d="M63 0v750h375v-750h-375zM125 63h250v625h-250v-625z" />
    <glyph glyph-name=".null" 
 />
    <glyph glyph-name="nonmarkingreturn" horiz-adv-x="333" 
 />
    <glyph glyph-name="space" unicode=" " horiz-adv-x="162" 
 />
    <glyph glyph-name="exclam" unicode="!" horiz-adv-x="213" 
d="M164 643l-20 -461h-74l-21 461h115zM159 0h-104v101h104v-101z" />
    <glyph glyph-name="quotedbl" unicode="&#x22;" horiz-adv-x="292" 
d="M127 611q0 -54 -18 -105q-7 -24 -30 -24q-29 0 -34 30q-7 44 -10.5 68.5t-3.5 30.5q0 57 48 57t48 -57zM254 611q0 -54 -18 -105q-7 -24 -30 -24q-29 0 -34 30q-7 44 -10.5 68.5t-3.5 30.5q0 57 48 57t48 -57z" />
    <glyph glyph-name="dollar" unicode="$" horiz-adv-x="584" 
d="M535 193q0 -81 -54 -131.5t-145 -59.5v-102h-76v100q-131 5 -211 86l67 67q57 -60 152 -63v204l-24 2q-78 9 -125.5 53.5t-47.5 125.5t50.5 132t138.5 58v84h76v-82q103 -6 176 -74l-64 -63q-46 43 -121 51v-200l31 -5q82 -12 123 -49q54 -46 54 -134zM268 387v192
q-99 -10 -99 -101q0 -38 25.5 -61t73.5 -30zM435 189q0 47 -25 69q-23 20 -83 29v-196q108 11 108 98z" />
    <glyph glyph-name="quotesingle" unicode="'" 
d="M107 611q0 -54 -18 -105q-7 -24 -30 -24q-29 0 -34 30q-7 44 -10.5 68.5t-3.5 30.5q0 57 48 57t48 -57z" />
    <glyph glyph-name="parenleft" unicode="(" horiz-adv-x="307" 
d="M246 -86l-64 -63l-42 42q-21 22 -33 45q-21 39 -21 108v441q0 70 21 107q17 29 75 87l64 -64q-10 -8 -23 -23t-29 -37q-13 -26 -13 -76v-429q0 -52 13 -77q11 -20 52 -61z" />
    <glyph glyph-name="parenright" unicode=")" horiz-adv-x="307" 
d="M221 46q0 -69 -21 -108q-16 -29 -75 -87l-64 63q19 18 52 61q14 26 14 77v429q0 48 -14 76q-5 10 -18.5 25t-33.5 35l64 64q16 -17 26 -27.5t15 -15.5q21 -21 34 -44q21 -37 21 -107v-441z" />
    <glyph glyph-name="at" unicode="*" horiz-adv-x="390" 
d="M341 96l-20 -35l-108 67l2 -128h-40l2 128l-108 -67l-20 35l111 61l-111 62l20 34l108 -66l-2 128h40l-2 -128l108 66l20 -34l-111 -62z" />
    <glyph glyph-name="plus" unicode="+" horiz-adv-x="496" 
d="M446 155h-154v-155h-88v155h-155v87h155v155h88v-155h154v-87z" />
    <glyph glyph-name="hyphen" unicode="-" horiz-adv-x="466" 
d="M417 199h-368v75h368v-75z" />
    <glyph glyph-name="period" unicode="." horiz-adv-x="369" 
d="M289 65q0 -28 -19.5 -47.5t-48.5 -19.5q-27 0 -46.5 19.5t-19.5 47.5q0 27 19.5 47t46.5 20q29 0 48.5 -20t19.5 -47z" />
    <glyph glyph-name="slash" unicode="/" horiz-adv-x="235" 
d="M325 643l-323 -643h-93l322 643h94z" />
    <glyph glyph-name="zero" unicode="0" horiz-adv-x="233" 
d="M167 75l-101 27v124l101 -27v-124z" />
    <glyph glyph-name="one" unicode="1" horiz-adv-x="226" 
d="M160 0l-94 30v613h94v-643z" />
    <glyph glyph-name="two" unicode="2" horiz-adv-x="518" 
d="M452 563h-265q-27 -3 -27 -34v-529l-94 30v509q0 66 53 92q27 12 61 12h272v-80z" />
    <glyph glyph-name="three" unicode="3" horiz-adv-x="592" 
d="M526 481q0 -151 -129 -151q-59 0 -89 44q-34 -46 -93 -44q-27 0 -55 16v-346l-94 30v615h94v-167q7 -61 55 -61q22 0 30 26q1 4 1 14.5t1 29.5v158h96v-165q11 -63 54 -63q23 0 30 21q3 12 3 49v158h96v-164z" />
    <glyph glyph-name="four" unicode="4" horiz-adv-x="545" 
d="M479 0h-212q-85 0 -144 50q-57 50 -57 136q0 107 75 153q-63 45 -63 131q0 79 53 126t136 47h145v-78h-145q-97 0 -97 -95t101 -95h100v-80h-100q-113 0 -113 -109q0 -48 30.5 -75t78.5 -27h171z" />
    <glyph glyph-name="five" unicode="5" horiz-adv-x="538" 
d="M472 218q0 -94 -49 -153q-56 -65 -154 -65q-95 0 -151 65q-52 59 -52 153q0 155 204 284q202 -139 202 -284zM377 218q0 102 -108 184q-108 -82 -108 -184q0 -137 108 -137t108 137z" />
    <glyph glyph-name="six" unicode="6" horiz-adv-x="518" 
d="M452 0l-93 30v499q0 31 -27 34h-266v80h272q34 0 61 -12q53 -26 53 -92v-539z" />
    <glyph glyph-name="seven" unicode="7" horiz-adv-x="666" 
d="M600 643l-225 -643h-85l-224 643h102l165 -503l165 503h102z" />
    <glyph glyph-name="eight" unicode="8" horiz-adv-x="666" 
d="M600 0h-102l-165 504l-165 -504h-102l224 643h85z" />
    <glyph glyph-name="nine" unicode="9" horiz-adv-x="521" 
d="M455 430v-400l-95 -30v220q-43 -24 -100 -24q-103 0 -154 71q-40 58 -40 152q0 95 40 153q51 71 154 71q97 0 149 -66q46 -58 46 -147zM361 419q0 142 -101 142t-101 -142q0 -141 101 -141t101 141z" />
    <glyph glyph-name="colon" unicode=":" horiz-adv-x="368" 
d="M288 320q0 -27 -19 -47t-48 -20q-27 0 -46.5 20t-19.5 47q0 28 19.5 47.5t46.5 19.5q29 0 48 -19.5t19 -47.5zM288 65q0 -28 -19 -47.5t-48 -19.5q-27 0 -46.5 19.5t-19.5 47.5q0 27 19.5 47t46.5 20q29 0 48 -20t19 -47z" />
    <glyph glyph-name="less" unicode="&#x3c;" horiz-adv-x="434" 
d="M377 -10h-89l-234 233l234 234h89l-234 -234z" />
    <glyph glyph-name="equal" unicode="=" horiz-adv-x="496" 
d="M446 387h-397v88h397v-88zM446 208h-397v87h397v-87z" />
    <glyph glyph-name="greater" unicode="&#x3e;" horiz-adv-x="402" 
d="M359 223l-234 -233h-89l234 233l-234 234h89z" />
    <glyph glyph-name="bracketleft" unicode="[" horiz-adv-x="330" 
d="M289 -84h-202v794h202v-83h-109v-628h109v-83z" />
    <glyph glyph-name="backslash" unicode="\" horiz-adv-x="437" 
d="M351 -60h-90l-261 786h91z" />
    <glyph glyph-name="bracketright" unicode="]" horiz-adv-x="330" 
d="M242 -84h-201v83h109v628h-109v83h201v-794z" />
    <glyph glyph-name="underscore" unicode="_" horiz-adv-x="234" 
d="M269 -98h-305v41h305v-41z" />
    <glyph glyph-name="braceleft" unicode="{" horiz-adv-x="383" 
d="M338 -84h-66q-69 0 -100.5 32t-31.5 96v154q0 39 -17 56.5t-43 17.5h-34v82h34q26 0 43 17.5t17 55.5v155q0 128 132 128h66v-84h-37q-40 0 -53 -14t-13 -59v-148q0 -66 -62 -93q62 -26 62 -92v-147q0 -50 17 -64q14 -9 49 -9h37v-84z" />
    <glyph glyph-name="bar" unicode="|" horiz-adv-x="157" 
d="M44 -65v780h73v-780h-73z" />
    <glyph glyph-name="braceright" unicode="}" horiz-adv-x="383" 
d="M338 272h-34q-27 0 -44.5 -17.5t-17.5 -56.5v-154q0 -128 -131 -128h-65v84h35q21 0 34 3t20.5 11t10.5 22t3 37v147q0 67 60 92q-60 27 -60 93v148q0 50 -19 63q-11 10 -49 10h-35v84h65q131 0 131 -128v-155q0 -38 17.5 -55.5t44.5 -17.5h34v-82z" />
    <glyph glyph-name="nonbreakingspace" unicode="&#xa0;" horiz-adv-x="623" 
 />
    <glyph glyph-name="guillemotleft" unicode="&#xab;" horiz-adv-x="455" 
d="M410 369q-55 -110 -55 -186t55 -183h-68q-66 93 -66 184q0 95 66 185h68zM274 369q-54 -111 -54 -186t54 -183h-67q-67 92 -67 184q0 96 67 185h67z" />
    <glyph glyph-name="guillemotright" unicode="&#xbb;" horiz-adv-x="455" 
d="M315 184q0 -91 -67 -185h-67q53 111 53 184q0 74 -54 186h67q68 -92 68 -185zM180 184q0 -91 -67 -185h-67q54 110 54 184t-54 186h67q67 -91 67 -185z" />
    <glyph glyph-name="multiply" unicode="&#xd7;" horiz-adv-x="485" 
d="M435 58l-59 -58l-134 134l-134 -134l-59 58l135 135l-135 134l59 59l134 -134l134 134l59 -59l-134 -134z" />
    <glyph glyph-name="divide" unicode="&#xf7;" horiz-adv-x="492" 
d="M290 339h-88v83h88v-83zM443 200h-394v77h394v-77zM290 54h-88v83h88v-83z" />
    <glyph glyph-name="commaarabic" unicode="&#x60c;" horiz-adv-x="230" 
d="M169 -1h-108v162l108 87v-249z" />
    <glyph glyph-name="semicolonarabic" unicode="&#x61b;" horiz-adv-x="368" 
d="M274 280h-107v163l107 87v-250zM288 66q0 -27 -20 -46.5t-47 -19.5q-28 0 -47 19.5t-19 46.5q0 29 19 48.5t47 19.5q27 0 47 -19.5t20 -48.5z" />
    <glyph glyph-name="questionarabic" unicode="&#x61f;" horiz-adv-x="466" 
d="M417 462h-94q0 40 -23.5 67t-65.5 27q-40 0 -65 -26.5t-25 -65.5q0 -34 43 -95q14 -18 28.5 -36t28.5 -37q24 -32 28 -57q4 -15 4 -66h-95q0 56 -16 78q-18 25 -36 49t-37 49q-43 67 -43 115q0 80 53 128q54 48 132 48q77 0 130 -50t53 -128zM271 0h-83v82h83v-82z" />
    <glyph glyph-name="tatweelarabic" unicode="&#x640;" horiz-adv-x="161" 
d="M173 0h-185v84h185v-84z" />
    <glyph glyph-name="maddaabove" unicode="&#x653;" 
d="M378 703q-56 -41 -96 -41q-27 0 -60 15q-32 16 -47 16q-31 0 -59 -26l-44 31q56 42 96 42q30 0 63 -16q35 -15 51 -15q23 0 52 26z" />
    <glyph glyph-name="hamzaabove" unicode="&#x654;" 
d="M302 664h-165l21 34h28v20q0 69 64 69q25 0 46 -21l-22 -28q-10 15 -27 15q-24 0 -24 -35v-20h79v-34z" />
    <glyph glyph-name="hamzabelow" unicode="&#x655;" 
d="M290 -195h-165l21 35h29v19q0 69 63 69q25 0 46 -21l-22 -28q-10 15 -27 15q-24 0 -24 -35v-19h79v-35z" />
    <glyph glyph-name="zeroarabic" unicode="&#x660;" horiz-adv-x="233" 
d="M167 75l-101 27v124l101 -27v-124z" />
    <glyph glyph-name="onearabic" unicode="&#x661;" horiz-adv-x="226" 
d="M160 0l-94 30v613h94v-643z" />
    <glyph glyph-name="twoarabic" unicode="&#x662;" horiz-adv-x="518" 
d="M452 563h-265q-27 -3 -27 -34v-529l-94 30v509q0 66 53 92q27 12 61 12h272v-80z" />
    <glyph glyph-name="threearabic" unicode="&#x663;" horiz-adv-x="592" 
d="M526 481q0 -151 -129 -151q-59 0 -89 44q-34 -46 -93 -44q-27 0 -55 16v-346l-94 30v615h94v-167q7 -61 55 -61q22 0 30 26q1 4 1 14.5t1 29.5v158h96v-165q11 -63 54 -63q23 0 30 21q3 12 3 49v158h96v-164z" />
    <glyph glyph-name="fourarabic" unicode="&#x664;" horiz-adv-x="545" 
d="M479 0h-212q-85 0 -144 50q-57 50 -57 136q0 107 75 153q-63 45 -63 131q0 79 53 126t136 47h145v-78h-145q-97 0 -97 -95t101 -95h100v-80h-100q-113 0 -113 -109q0 -48 30.5 -75t78.5 -27h171z" />
    <glyph glyph-name="fivearabic" unicode="&#x665;" horiz-adv-x="538" 
d="M472 218q0 -94 -49 -153q-56 -65 -154 -65q-95 0 -151 65q-52 59 -52 153q0 155 204 284q202 -139 202 -284zM377 218q0 102 -108 184q-108 -82 -108 -184q0 -137 108 -137t108 137z" />
    <glyph glyph-name="sixarabic" unicode="&#x666;" horiz-adv-x="518" 
d="M452 0l-93 30v499q0 31 -27 34h-266v80h272q34 0 61 -12q53 -26 53 -92v-539z" />
    <glyph glyph-name="sevenarabic" unicode="&#x667;" horiz-adv-x="666" 
d="M600 643l-225 -643h-85l-224 643h102l165 -503l165 503h102z" />
    <glyph glyph-name="eightarabic" unicode="&#x668;" horiz-adv-x="666" 
d="M600 0h-102l-165 504l-165 -504h-102l224 643h85z" />
    <glyph glyph-name="ninearabic" unicode="&#x669;" horiz-adv-x="521" 
d="M455 430v-400l-95 -30v220q-43 -24 -100 -24q-103 0 -154 71q-40 58 -40 152q0 95 40 153q51 71 154 71q97 0 149 -66q46 -58 46 -147zM361 419q0 142 -101 142t-101 -142q0 -141 101 -141t101 141z" />
    <glyph glyph-name="percentarabic" unicode="&#x66a;" horiz-adv-x="477" 
d="M229 513l-75 21v92l75 -22v-91zM428 668l-311 -668h-68l311 668h68zM326 37l-75 22v91l75 -22v-91z" />
    <glyph glyph-name="decimalseparatorarabic" unicode="&#x66b;" horiz-adv-x="230" 
d="M169 -1h-108v162l108 87v-249z" />
    <glyph glyph-name="thousandsseparatorarabic" unicode="&#x66c;" horiz-adv-x="230" 
d="M169 -1h-108v162l108 87v-249z" />
    <glyph glyph-name="asteriskarabic" unicode="&#x66d;" horiz-adv-x="500" 
d="M447 245l-116 -92l51 -138l-17 -15l-113 94l-114 -94l-17 13l52 139l-117 93l9 21l138 -21l39 143h20l38 -143l138 20z" />
    <glyph glyph-name="superscriptalef" unicode="&#x670;" 
d="M23 684v234h54v-234h-54z" />
    <glyph glyph-name="extendedarabicindicdigitzero" unicode="&#x6f0;" horiz-adv-x="233" 
d="M167 75l-101 27v124l101 -27v-124z" />
    <glyph glyph-name="extendedarabicindicdigitone" unicode="&#x6f1;" horiz-adv-x="226" 
d="M160 0l-94 30v613h94v-643z" />
    <glyph glyph-name="extendedarabicindicdigittwo" unicode="&#x6f2;" horiz-adv-x="518" 
d="M452 563h-265q-27 -3 -27 -34v-529l-94 30v509q0 66 53 92q27 12 61 12h272v-80z" />
    <glyph glyph-name="extendedarabicindicdigitthree" unicode="&#x6f3;" horiz-adv-x="592" 
d="M526 481q0 -151 -129 -151q-59 0 -89 44q-34 -46 -93 -44q-27 0 -55 16v-346l-94 30v615h94v-167q7 -61 55 -61q22 0 30 26q1 4 1 14.5t1 29.5v158h96v-165q11 -63 54 -63q23 0 30 21q3 12 3 49v158h96v-164z" />
    <glyph glyph-name="extendedarabicindicdigitfour" unicode="&#x6f4;" horiz-adv-x="545" 
d="M479 0h-212q-85 0 -144 50q-57 50 -57 136q0 107 75 153q-63 45 -63 131q0 79 53 126t136 47h145v-78h-145q-97 0 -97 -95t101 -95h100v-80h-100q-113 0 -113 -109q0 -48 30.5 -75t78.5 -27h171z" />
    <glyph glyph-name="extendedarabicindicdigitfive" unicode="&#x6f5;" horiz-adv-x="538" 
d="M472 218q0 -94 -49 -153q-56 -65 -154 -65q-95 0 -151 65q-52 59 -52 153q0 155 204 284q202 -139 202 -284zM377 218q0 102 -108 184q-108 -82 -108 -184q0 -137 108 -137t108 137z" />
    <glyph glyph-name="extendedarabicindicdigitsix" unicode="&#x6f6;" horiz-adv-x="518" 
d="M452 0l-93 30v499q0 31 -27 34h-266v80h272q34 0 61 -12q53 -26 53 -92v-539z" />
    <glyph glyph-name="extendedarabicindicdigitseven" unicode="&#x6f7;" horiz-adv-x="666" 
d="M600 643l-225 -643h-85l-224 643h102l165 -503l165 503h102z" />
    <glyph glyph-name="extendedarabicindicdigiteight" unicode="&#x6f8;" horiz-adv-x="666" 
d="M600 0h-102l-165 504l-165 -504h-102l224 643h85z" />
    <glyph glyph-name="extendedarabicindicdigitnine" unicode="&#x6f9;" horiz-adv-x="521" 
d="M455 430v-400l-95 -30v220q-43 -24 -100 -24q-103 0 -154 71q-40 58 -40 152q0 95 40 153q51 71 154 71q97 0 149 -66q46 -58 46 -147zM361 419q0 142 -101 142t-101 -142q0 -141 101 -141t101 141z" />
    <glyph glyph-name="zeronojoin" unicode="&#x200c;" horiz-adv-x="20" 
d="M20 0h-20v722h20v-722z" />
    <glyph glyph-name="zerojoin" unicode="&#x200d;" horiz-adv-x="20" 
d="M71 663l-14 -13l-37 37v-687h-20v687l-37 -37l-14 13l48 48l-48 47l14 14l47 -48l47 48l14 -14l-47 -47z" />
    <glyph glyph-name="lefttoright" unicode="&#x200e;" horiz-adv-x="20" 
d="M134 711l-60 -61l-14 14l38 38h-78v-702h-20v722h96l-36 36l14 14z" />
    <glyph glyph-name="righttoleft" unicode="&#x200f;" horiz-adv-x="20" 
d="M20 0h-20v702h-78l38 -38l-14 -14l-60 61l60 61l14 -14l-36 -36h96v-722z" />
    <glyph glyph-name="hyphenminus" unicode="&#x2010;" horiz-adv-x="454" 
d="M24 192v39h421v-39h-421z" />
    <glyph glyph-name="quotedblleft" unicode="&#x201c;" horiz-adv-x="292" 
d="M157 539q0 54 18 105q8 24 30 24q30 0 34 -30q7 -44 10.5 -68.5t3.5 -30.5q0 -57 -48 -57t-48 57zM30 539q0 54 18 105q8 24 30 24q30 0 34 -30q7 -44 10.5 -68.5t3.5 -30.5q0 -57 -48 -57t-48 57z" />
    <glyph glyph-name="quotedblright" unicode="&#x201d;" horiz-adv-x="292" 
d="M127 611q0 -54 -18 -105q-7 -24 -30 -24q-29 0 -34 30q-7 44 -10.5 68.5t-3.5 30.5q0 57 48 57t48 -57zM254 611q0 -54 -18 -105q-7 -24 -30 -24q-29 0 -34 30q-7 44 -10.5 68.5t-3.5 30.5q0 57 48 57t48 -57z" />
    <glyph glyph-name="delete" unicode="&#x2421;" horiz-adv-x="709" 
d="M674 57h-163v260h36v-229h127v-31zM479 57h-195v260h189v-31h-153v-79h143v-31h-143v-88h159v-31zM253 189q0 -108 -79 -127q-20 -5 -41 -5h-95v260h90q33 0 46 -4q79 -18 79 -124zM218 189q0 74 -46 92q-15 5 -44 5h-55v-198h56q44 0 63 18q26 28 26 83z" />
    <glyph glyph-name="ornateleftparenthesis" unicode="&#xfd3e;" horiz-adv-x="307" 
d="M246 -86l-64 -63l-42 42q-21 22 -33 45q-21 39 -21 108v441q0 70 21 107q17 29 75 87l64 -64q-10 -8 -23 -23t-29 -37q-13 -26 -13 -76v-429q0 -52 13 -77q11 -20 52 -61z" />
    <glyph glyph-name="ornaterightparenthesis" unicode="&#xfd3f;" horiz-adv-x="307" 
d="M221 46q0 -69 -21 -108q-16 -29 -75 -87l-64 63q19 18 52 61q14 26 14 77v429q0 48 -14 76q-5 10 -18.5 25t-33.5 35l64 64q16 -17 26 -27.5t15 -15.5q21 -21 34 -44q21 -37 21 -107v-441z" />
    <glyph glyph-name="zerowidthnobreakspace" unicode="&#xfeff;" 
 />
    <glyph glyph-name="_13" horiz-adv-x="273" 
 />
    <glyph glyph-name="_246" 
 />
    <glyph glyph-name="_4" horiz-adv-x="280" 
 />
    <glyph glyph-name="kashidaautoarabic" horiz-adv-x="80" 
d="M100 0h-112v82h112v-82z" />
    <glyph glyph-name="nonbreakingspace" horiz-adv-x="623" 
 />
  </font>
</defs>
</svg>
